<svg width="120" height="30" viewBox="0 0 120 30" fill="none" xmlns="http://www.w3.org/2000/svg">
<path d="M33.0946 5.93505C33.0235 2.94341 32.6767 2.04744 31.2021 1.04302C30.3272 0.447306 30.227 0.441162 21.3045 0.452115L12.2907 0.4628L6.1504 4.79305L0.0103084 9.12303L0.00502204 19.3409L0 29.5588H15.1591H30.3182L31.2021 28.957C32.1418 28.3169 32.9617 27.1009 33.0481 26.2196C33.0769 25.9258 33.0867 24.6935 33.07 23.4815L33.0396 21.2776H28.9427H24.8458V22.7469C24.8458 24.3374 24.3552 25.1343 23.2004 25.4196C22.8698 25.5013 19.3877 25.5344 15.4626 25.4933L8.32599 25.4182L8.25304 21.3444L8.18009 17.2706H16.513H24.8458V15.1373V13.004L16.5859 12.9334L8.32599 12.8629L8.24617 10.1916C8.15101 7.00332 8.31489 5.92864 9.00159 5.23462C9.48502 4.74603 9.93568 4.71531 16.606 4.71531C23.6757 4.71531 23.6981 4.71718 24.2712 5.33346C24.7094 5.80495 24.8458 6.28232 24.8458 7.34391V8.73595L29.0017 8.66222L33.1575 8.58876L33.0946 5.93505Z" fill="#F1F1F2"/>
<path d="M71.7782 2.27771C71.4238 1.75039 70.7218 1.12155 70.2185 0.880064C69.4261 0.499932 68.1206 0.441429 60.4887 0.443834L51.674 0.446237L45.5329 4.78477L39.392 9.12303L39.3875 19.3409L39.3833 29.5588L54.5154 29.5577C69.1488 29.5569 69.6759 29.5393 70.509 29.0259C72.0529 28.0746 72.4208 27.1111 72.4219 24.0158L72.4229 21.2776H68.326H64.2291V22.6339C64.2291 23.7783 64.1078 24.1127 63.4522 24.7752L62.6754 25.5601L55.1923 25.4893L47.7093 25.4182V15.6288C47.7093 6.37715 47.737 5.80869 48.2128 5.27736C48.7012 4.73214 48.933 4.71531 55.9248 4.71531H63.1335L63.6811 5.41921C64.0649 5.91207 64.2291 6.51232 64.2291 7.42272V8.72233H68.326H72.4229V5.97939C72.4229 3.51214 72.3582 3.14029 71.7782 2.27771Z" fill="#F1F1F2"/>
<path d="M102.961 2.48207C102.658 2.02767 102.009 1.38254 101.518 1.04863C100.672 0.47215 100.382 0.441162 95.8184 0.441162H91.01L84.8884 4.7658L78.7665 9.09044V19.3246V29.5588H82.8634H86.9604V17.841C86.9604 3.48943 86.576 4.71531 91.0766 4.71531C95.5789 4.71531 95.1542 3.36602 95.1542 17.6713V29.5588H99.3833H103.612V17.6713C103.612 3.36602 103.188 4.71531 107.69 4.71531C112.19 4.71531 111.806 3.48943 111.806 17.841V29.5588H115.903H120L119.999 16.4024C119.998 3.74561 119.978 3.21295 119.473 2.37548C118.405 0.605717 117.799 0.442231 112.335 0.451848L107.445 0.460663L105.478 1.88449L103.512 3.30832L102.961 2.48207Z" fill="#F1F1F2"/>
</svg>
