<svg width="25" height="25" viewBox="0 0 25 25" fill="none" xmlns="http://www.w3.org/2000/svg">
<path d="M11.2385 13.5886L11.2363 13.5881C9.34306 13.1984 7.81089 13.0572 6.07476 13.7203C4.79494 14.2145 3.54223 14.6554 2.15021 14.9148L2.14976 14.9149C1.9899 14.9445 1.83017 14.9747 1.67058 15.0055L1.42742 15.0537L1.42513 15.0542L1.42513 15.0542L1.16541 15.1044L0.910878 15.1594L0.907159 15.1602L0.907156 15.1602C0.781371 15.1864 0.748443 15.1937 0.719439 15.2026C0.702383 15.2077 0.685386 15.2138 0.648517 15.2285C0.594032 15.2871 0.567375 15.3223 0.549641 15.3525C0.533441 15.3801 0.51567 15.4187 0.500217 15.4997L0.501428 15.7382L0.501446 15.7418C0.501067 15.9061 0.500809 16.0667 0.502728 16.2266L0.00276378 16.2326M11.2385 13.5886L0.505592 16.5829L0.505589 16.5818C0.505191 16.4633 0.50424 16.3447 0.502723 16.2262L0.00276378 16.2326M11.2385 13.5886C12.6797 13.8786 14.1023 13.772 15.4697 13.6697L15.5042 13.6671C15.5043 13.6671 15.5045 13.6671 15.5046 13.6671C16.6096 13.5859 17.0959 13.5519 17.3731 13.574C17.491 13.5834 17.5339 13.6012 17.5585 13.6137C17.5949 13.632 17.6326 13.6591 17.7303 13.7376C17.9592 14.0086 18.0421 14.269 18.0505 14.6647L18.0504 14.6647L18.0508 14.6733L18.0572 14.8388C17.8129 14.9451 17.5574 15.0061 17.234 15.0799L17.2305 15.0807L17.0075 15.1333C17.0074 15.1333 17.0073 15.1333 17.0072 15.1333C17.0072 15.1333 17.0072 15.1333 17.0072 15.1333C16.7738 15.1882 16.54 15.2421 16.305 15.2963L16.3034 15.2967L15.8293 15.408C15.8293 15.408 15.8293 15.408 15.8293 15.408C15.8292 15.408 15.8291 15.408 15.829 15.4081C15.5394 15.4759 15.2502 15.5435 14.961 15.6103L14.961 15.6103L14.7871 15.6505L14.6148 15.6887L14.6133 15.6891L14.4258 15.7313C14.2693 15.7579 14.1241 15.7654 13.9455 15.7629L13.9437 15.7629L13.724 15.7605L13.7218 15.7605L13.4874 15.757V15.7569L13.4841 15.7569L12.9856 15.7528C12.9855 15.7528 12.9853 15.7528 12.9852 15.7528C12.7243 15.7503 12.4637 15.7475 12.2034 15.7438L12.203 15.7438C11.9493 15.7403 11.6961 15.7384 11.4441 15.7368L11.2101 15.7323L11.2101 15.7322L11.2024 15.7322L10.9834 15.7313L10.7915 15.729L10.7484 15.7285L10.7058 15.7354C10.3391 15.7945 10.1363 15.9679 9.95884 16.1212L9.76785 16.2862L9.7872 16.5379C9.8102 16.8371 9.81331 16.858 9.87672 17.1654L9.91821 17.3665L10.0891 17.4804C10.4307 17.7081 10.8233 17.7705 11.1505 17.7902C11.3178 17.8003 11.4838 17.7997 11.6331 17.7981C11.661 17.7978 11.6881 17.7974 11.7145 17.7971C11.8341 17.7956 11.9401 17.7943 12.0414 17.7969C12.261 17.8052 12.481 17.8216 12.7095 17.8406L12.7095 17.8407L12.7197 17.8413C14.0508 17.9245 15.2464 17.6623 16.4547 17.3687C16.4547 17.3687 16.4548 17.3687 16.4548 17.3687L16.7024 17.3086L16.7038 17.3082C16.9424 17.2496 17.1804 17.1898 17.4178 17.1292C17.418 17.1291 17.4182 17.1291 17.4184 17.129L17.6291 17.0759C17.6293 17.0758 17.6294 17.0758 17.6296 17.0757C17.6476 17.0713 17.6653 17.0668 17.6828 17.0625C18.1419 16.948 18.4467 16.872 18.7225 16.7355C18.9999 16.5982 19.2389 16.4042 19.5951 16.115C19.6089 16.1038 19.6228 16.0925 19.6369 16.081L19.7208 16.013L19.7691 15.9164C19.894 15.6667 19.9856 15.4287 20.0544 15.1765C20.3027 15.145 20.5511 15.1138 20.7995 15.0829L20.7999 15.0829C20.924 15.0673 21.0481 15.0516 21.1721 15.0357C22.1933 14.9051 22.6203 14.8533 22.8777 14.8718C22.979 14.8791 23.0309 14.8968 23.0802 14.9217C23.1426 14.9532 23.21 15.0003 23.3417 15.0973C23.4678 15.2397 23.523 15.3465 23.5533 15.4466C23.5886 15.5626 23.6023 15.7067 23.5988 15.95C23.5892 16.0567 23.5748 16.1167 23.5575 16.1627C23.5435 16.1997 23.5222 16.2425 23.4812 16.303C23.1382 16.544 22.7522 16.7342 22.3291 16.9313L22.3267 16.9324L22.1421 17.0196C21.9455 17.1124 21.7484 17.2047 21.5505 17.2973L21.5496 17.2977L21.1344 17.4932C21.1344 17.4932 21.1344 17.4932 21.1343 17.4932C21.1343 17.4932 21.1342 17.4932 21.1342 17.4933C20.1601 17.9516 19.1841 18.4062 18.2066 18.8582L18.2065 18.8582C17.8246 19.0349 17.4433 19.2127 17.0626 19.3914C16.0852 19.8499 15.109 20.3056 14.1286 20.7506L14.1282 20.7507C13.9811 20.8176 13.8345 20.8851 13.689 20.9521C13.6884 20.9523 13.6878 20.9526 13.6873 20.9528L13.4173 21.0747L13.4158 21.0753L13.1941 21.1763C11.4932 21.82 9.83351 21.412 7.95941 20.9512C7.82997 20.9193 7.69951 20.8873 7.56794 20.8553L7.5215 20.8434C6.23033 20.5124 5.52498 20.3316 4.80878 20.2675C4.0922 20.2033 3.37195 20.2566 2.05493 20.3539L2.00437 20.3577L1.96675 20.3604L1.92998 20.3688C1.24542 20.5251 0.992402 20.5794 0.842681 20.5802C0.839353 20.5803 0.836207 20.5803 0.83319 20.5804C0.787901 20.581 0.771834 20.5813 0.605974 20.4793C0.552728 20.4155 0.545376 20.3856 0.54117 20.3683C0.536283 20.3482 0.531502 20.3171 0.528759 20.2597C0.526388 20.2102 0.526003 20.1567 0.525475 20.0835C0.525351 20.0663 0.525219 20.0481 0.525053 20.0286L0.525047 20.0279L0.521925 19.7109L0.521909 19.7089L0.520122 19.3648L0.520119 19.3644L0.519123 19.1884C0.519123 19.1884 0.519123 19.1883 0.519123 19.1883C0.517443 18.8814 0.516291 18.5744 0.515536 18.2673L0.515535 18.2671C0.514638 17.948 0.51185 17.6292 0.508644 17.3116L11.2385 13.5886ZM0.00276378 16.2326C0.00426072 16.3495 0.00519891 16.4665 0.00559157 16.5835M0.00276378 16.2326C0.000796595 16.0686 0.00106935 15.9047 0.00143421 15.7407L0 15.4583L0.00559157 16.5835M0.00559157 16.5835C0.00588119 16.8278 0.00655458 17.072 0.00866558 17.3163L0.00559157 16.5835Z" stroke="#8F6244"/>
<path d="M6.31299 0.0764559C6.54154 0.125998 6.76699 0.182363 6.99298 0.242543C7.11731 0.274856 7.11731 0.274856 7.24416 0.30782C11.6084 1.4699 11.6084 1.4699 12.7868 3.26805C13.1606 3.96237 13.3414 4.70843 13.136 5.49179C13.0797 5.64056 13.0148 5.78606 12.9482 5.93049C12.594 5.80913 12.3128 5.61543 12.0103 5.40103C11.5284 5.06877 11.0322 4.79757 10.5026 4.54884C10.4356 4.51738 10.3686 4.48591 10.2996 4.45349C9.98227 4.29389 9.98227 4.29389 9.64029 4.23621C9.71153 4.2958 9.78277 4.35539 9.85617 4.41679C11.3916 5.71 12.5015 7.05578 13.4323 8.83497C13.4673 8.79373 13.5023 8.75249 13.5384 8.70999C14.1907 7.94612 14.902 7.27674 15.6913 6.65661C15.7718 6.59182 15.8523 6.52703 15.9352 6.46027C17.0091 5.60465 18.1833 4.94162 19.4026 4.31689C18.3319 4.41971 17.3045 4.70969 16.3033 5.09879C16.014 5.20437 16.014 5.20437 15.772 5.20437C15.7175 4.2383 15.8649 3.54987 16.4899 2.7972C17.8244 1.42302 19.8426 1.18279 21.6708 1.15097C21.9753 1.14824 22.2797 1.14797 22.5842 1.14933C22.8197 1.15021 23.0553 1.14932 23.2908 1.1483C23.4416 1.14841 23.5924 1.14862 23.7432 1.14893C23.8132 1.14861 23.8831 1.14828 23.9551 1.14794C24.0526 1.14871 24.0526 1.14871 24.1521 1.14949C24.2373 1.14968 24.2373 1.14968 24.3241 1.14987C24.5178 1.17447 24.643 1.22811 24.8082 1.33172C25.0281 1.6616 25.0223 1.91247 24.9695 2.29989C24.8808 2.55846 24.7564 2.78872 24.6216 3.02601C24.5674 3.12484 24.5674 3.12484 24.5121 3.22568C23.3843 5.25078 22.0442 7.4202 19.7307 8.15865C18.9208 8.30868 18.1131 8.22228 17.4209 7.77101C17.3235 7.69862 17.3235 7.69862 17.2242 7.62477C16.18 8.10563 15.1438 9.19775 14.4247 10.0786C14.3197 10.2065 14.3197 10.2065 14.118 10.4032C13.9595 10.674 13.998 10.8278 14.0484 11.1296C14.1 11.4933 14.0823 11.8568 14.0777 12.2235C13.5718 12.2235 13.066 12.2235 12.5448 12.2235C12.5132 12.0089 12.4815 11.7942 12.449 11.5731C12.237 10.2577 11.7678 9.04745 11.0119 7.94749C10.9541 7.9659 10.8964 7.98431 10.8369 8.00328C9.90956 8.27081 9.14352 8.25276 8.27708 7.79661C6.33023 6.68802 5.6365 4.29083 5.07777 2.25639C5.04003 2.11301 5.00272 1.96951 4.96589 1.82589C4.94882 1.76024 4.93175 1.69459 4.91416 1.62695C4.80908 1.19858 4.71442 0.767046 4.86504 0.338351C5.19194 -0.126198 5.81777 -0.00276481 6.31299 0.0764559Z" fill="#8F6244"/>
</svg>
