<svg width="20" height="21" viewBox="0 0 20 21" fill="none" xmlns="http://www.w3.org/2000/svg">
<path fill-rule="evenodd" clip-rule="evenodd" d="M6.00317 4.20085V8.08598H9.64595V4.20085H6.00317ZM7.30317 6.78598V5.50085H8.34595V6.78598H7.30317Z" fill="#333333"/>
<path fill-rule="evenodd" clip-rule="evenodd" d="M10.6887 4.20085V8.08598H14.3315V4.20085H10.6887ZM11.9887 6.78598V5.50085H13.0315V6.78598H11.9887Z" fill="#333333"/>
<path fill-rule="evenodd" clip-rule="evenodd" d="M6.00317 9.37112V13.2563H9.64595V9.37112H6.00317ZM7.30317 11.9563V10.6711H8.34595V11.9563H7.30317Z" fill="#333333"/>
<path fill-rule="evenodd" clip-rule="evenodd" d="M10.6887 9.37112V13.2563H14.3315V9.37112H10.6887ZM11.9887 11.9563V10.6711H13.0315V11.9563H11.9887Z" fill="#333333"/>
<path fill-rule="evenodd" clip-rule="evenodd" d="M5.33381 0V1.93885H3.99508V20.0422H16.0049V1.93885H14.6662V0H5.33381ZM13.3662 1.93885H6.63381V1.3H13.3662V1.93885ZM5.29508 18.7422V3.23885H14.7049V18.7422H12.6581V14.5414H7.3419V18.7422H5.29508ZM11.3581 15.8414V18.7422H8.6419V15.8414H11.3581Z" fill="#333333"/>
</svg>
