<svg width="16" height="17" viewBox="0 0 16 17" fill="none" xmlns="http://www.w3.org/2000/svg">
<path fill-rule="evenodd" clip-rule="evenodd" d="M6.36322 1.9838C6.24677 2.00875 6.08872 2.08361 6.00554 2.15847C5.91405 2.24997 5.85582 2.41633 5.86414 2.63259C5.86414 2.81559 5.90573 3.03186 5.96396 3.11503C6.0305 3.21485 6.2634 3.30635 6.61275 3.36457L7.15342 3.46439C7.19501 4.82853 7.19501 4.83685 6.96211 4.92834C6.83734 4.97825 6.54621 5.05311 6.32163 5.0947C6.08872 5.14461 5.83087 5.21115 5.73937 5.25274C5.64787 5.28601 5.30684 5.44406 4.99076 5.59378C4.67468 5.75182 4.21719 6.01799 3.99261 6.20099C3.7597 6.37566 3.39372 6.7167 3.16913 6.9496C2.95286 7.1825 2.63678 7.58176 2.47043 7.8313C2.31238 8.08084 2.07948 8.51337 1.95471 8.78786C1.82994 9.06235 1.6719 9.55311 1.59704 9.86919C1.52218 10.1853 1.42237 10.5513 1.38078 10.676C1.33087 10.8091 1.23937 10.9089 1.18946 10.9089C1.13124 10.9089 0.92329 11.042 0.731978 11.2001C0.532348 11.3581 0.291128 11.6492 0.191312 11.8405C0.0166359 12.1649 0 12.3147 0 13.4126C0 14.1862 0.0332717 14.6686 0.0914972 14.7435C0.141405 14.81 0.357671 14.9099 0.573937 14.9598C0.865065 15.0429 2.62847 15.0679 8.0268 15.0679C14.573 15.0679 15.122 15.0596 15.4381 14.9182C15.6876 14.8184 15.8207 14.6936 15.9039 14.4856C16.0037 14.2611 16.0203 13.9866 15.9787 13.2795C15.9372 12.5725 15.8789 12.2731 15.7292 11.9487C15.6294 11.7158 15.4131 11.408 15.2551 11.2583C15.097 11.1086 14.9224 10.9921 14.8725 10.9921C14.8142 10.9921 14.7061 10.9339 14.6396 10.8673C14.573 10.8008 14.4566 10.5263 14.39 10.2601C14.3475 10.0955 14.2881 9.88671 14.2376 9.70967L14.2376 9.70937C14.2091 9.60929 14.1835 9.51937 14.1654 9.4533C14.1072 9.2703 13.9409 8.87104 13.7911 8.55496C13.6414 8.2472 13.5166 7.98102 13.5166 7.95607C13.5166 7.93112 13.2505 7.60672 12.9261 7.22409C12.61 6.84979 12.1275 6.38398 11.8697 6.18435C11.6118 5.98472 11.1128 5.69359 10.7717 5.52723C10.4307 5.36919 9.86506 5.16125 9.52403 5.07807C9.18299 4.98657 8.85028 4.87012 8.79205 4.81189C8.72551 4.75367 8.68392 4.50413 8.68392 4.17141C8.68392 3.83038 8.72551 3.59747 8.79205 3.53925C8.85028 3.48934 9.11645 3.40616 9.38262 3.35625C9.80684 3.26476 9.87338 3.22317 10.0065 2.96531C10.1146 2.74073 10.1312 2.61596 10.0647 2.4496C10.0231 2.33315 9.84843 2.16679 9.69039 2.08361C9.43253 1.94221 9.21627 1.92557 7.98521 1.93389C7.21164 1.94221 6.47967 1.96716 6.36322 1.9838ZM6.0305 6.74165C6.23845 6.64184 6.5878 6.50875 6.8207 6.45884C7.0536 6.40062 7.51109 6.35071 7.84381 6.34239C8.16821 6.33407 8.64233 6.37566 8.88355 6.42557C9.11645 6.47548 9.47412 6.56698 9.67375 6.63352C9.86506 6.70006 10.1645 6.82483 10.3392 6.90801C10.5055 6.99951 10.9048 7.29064 11.2209 7.55681C11.537 7.82298 11.9279 8.2472 12.0943 8.49674C12.2606 8.74627 12.4603 9.08731 12.5434 9.24535C12.6266 9.40339 12.7514 9.70284 12.8179 9.91078C12.8928 10.1187 12.9344 10.36 12.9177 10.4514C12.8928 10.6176 12.8182 10.6178 7.99101 10.6344L7.96858 10.6344C4.0841 10.6511 3.02773 10.6344 2.98614 10.5513C2.96118 10.5014 3.00277 10.2269 3.08595 9.95237C3.16913 9.67788 3.34381 9.24535 3.47689 8.99581C3.60998 8.74627 3.87616 8.35533 4.06747 8.13075C4.25046 7.90616 4.64972 7.54017 4.94917 7.31559C5.24861 7.09101 5.53142 6.91633 5.57301 6.91633C5.6146 6.91633 5.82255 6.84147 6.0305 6.74165ZM1.55545 12.4977C1.61368 12.3895 1.73845 12.2731 1.82994 12.2315C1.92144 12.1982 4.66636 12.1649 7.91867 12.1649C11.695 12.1566 13.9242 12.1899 14.0573 12.2398C14.1738 12.2897 14.3235 12.4311 14.39 12.5725C14.4566 12.7056 14.5148 12.9718 14.5148 13.1548C14.5148 13.4293 14.4815 13.4958 14.3318 13.5291C14.2237 13.554 11.2791 13.5624 1.41405 13.5291L1.43068 13.1132C1.439 12.8803 1.49723 12.6058 1.55545 12.4977Z" fill="#CEA183"/>
</svg>
