<svg width="17" height="17" viewBox="0 0 17 17" fill="none" xmlns="http://www.w3.org/2000/svg">
<path fill-rule="evenodd" clip-rule="evenodd" d="M3.58307 4.33296C3.27805 4.40335 3.19007 4.45614 2.93785 4.72596C2.72082 4.96059 2.6211 5.12483 2.54485 5.38878C2.48619 5.58235 2.43926 5.80525 2.44513 5.88737C2.44513 5.96948 2.40994 6.06334 2.36888 6.1044C2.32195 6.15132 2.26329 6.15719 2.20464 6.12199C2.15771 6.0868 1.94655 6.06334 1.73538 6.06334C1.4245 6.06334 1.30132 6.09266 1.06083 6.23344C0.873131 6.33902 0.697161 6.50326 0.579848 6.6851C0.450803 6.8728 0.374549 7.0781 0.351087 7.2658C0.33349 7.42417 0.327624 8.27469 0.339355 9.14281C0.351087 10.269 0.380415 10.7676 0.42734 10.8615C0.4684 10.9318 0.60331 11.1019 0.720624 11.231C0.843803 11.3659 1.05497 11.5243 1.18988 11.5829C1.35998 11.6592 1.58288 11.6944 1.86443 11.6944C2.13425 11.6944 2.32195 11.7178 2.36888 11.7648C2.40994 11.8117 2.43926 11.9759 2.43926 12.1636C2.43926 12.4217 2.46273 12.5097 2.56831 12.6153C2.64456 12.6915 2.76188 12.7502 2.83226 12.7502C2.91438 12.7502 3.0141 12.6857 3.08449 12.586C3.17247 12.4686 3.20767 12.3396 3.2018 12.0874C3.2018 11.841 3.22526 11.7472 3.28979 11.7237C3.33671 11.7061 5.60086 11.6944 8.32253 11.6944C12.2173 11.6944 13.279 11.7061 13.3553 11.7648C13.4139 11.8117 13.4667 11.9701 13.4902 12.1636C13.5078 12.3396 13.5664 12.5449 13.6134 12.6153C13.6603 12.6915 13.76 12.7502 13.8363 12.7502C13.9066 12.7502 13.9946 12.7267 14.0298 12.7033C14.065 12.6798 14.1237 12.6036 14.1647 12.5273C14.1999 12.4569 14.2293 12.2868 14.2293 12.146C14.2293 12.0111 14.2527 11.8645 14.2762 11.8234C14.2996 11.7765 14.5167 11.7296 14.8452 11.7002C15.1971 11.6709 15.4552 11.6123 15.6253 11.5301C15.7602 11.4597 15.942 11.3014 16.0359 11.1782C16.1239 11.0609 16.2294 10.8439 16.2705 10.6972C16.3292 10.5036 16.3409 9.9992 16.3292 8.76154L16.3291 8.75295C16.3116 7.10734 16.3113 7.08348 16.1649 6.80828C16.0828 6.6499 15.9362 6.4622 15.8423 6.39181C15.7485 6.31556 15.5725 6.20998 15.461 6.15132C15.3027 6.07507 15.1443 6.05747 14.7572 6.0692L14.2586 6.0868C14.1823 5.54716 14.1119 5.2832 14.0533 5.15416C14.0005 5.02511 13.8597 4.83155 13.7541 4.7201C13.6427 4.61452 13.4902 4.49134 13.4081 4.45028C13.3259 4.40922 13.1206 4.3447 12.9564 4.3095C12.7394 4.26258 11.3023 4.24498 8.2932 4.25084C4.83246 4.25671 3.86462 4.27431 3.58307 4.33296ZM3.89395 5.00165C3.80596 5.02511 3.65932 5.08963 3.57134 5.13656C3.48335 5.18349 3.36017 5.32426 3.30738 5.44157C3.21353 5.62928 3.2018 5.82284 3.2194 7.0781L3.23113 8.49759C10.8682 8.52105 13.1734 8.51518 13.279 8.49759L13.4667 8.46826C13.4609 5.6938 13.455 5.54716 13.3494 5.38878C13.2907 5.29493 13.15 5.16002 13.0444 5.0955C12.8567 4.98405 12.7394 4.97819 8.45157 4.96646C6.02905 4.96059 3.98193 4.97819 3.89395 5.00165ZM1.44797 6.8376C1.37171 6.87866 1.24853 6.99011 1.18401 7.0781C1.0667 7.23647 1.06083 7.32445 1.04324 8.79674C1.0315 10.1693 1.04324 10.3687 1.13122 10.5682C1.19574 10.7031 1.31306 10.8263 1.4421 10.8849C1.63567 10.9846 2.08732 10.9905 8.33426 10.9905C14.5812 10.9905 15.0329 10.9846 15.2264 10.8849C15.3437 10.8263 15.4728 10.6972 15.5314 10.5799C15.6253 10.3981 15.637 10.1869 15.637 8.89645C15.637 7.77611 15.6194 7.36551 15.5549 7.22474C15.5138 7.11916 15.4259 6.99011 15.3672 6.93732C15.3027 6.88453 15.1854 6.82587 15.0915 6.80241C15.0035 6.78481 14.8276 6.79654 14.6985 6.82587C14.5049 6.8728 14.4463 6.92559 14.3466 7.13675C14.2469 7.34792 14.2293 7.51216 14.2293 8.23363C14.2293 8.70289 14.2058 9.11935 14.1823 9.15454C14.153 9.2132 12.8802 9.22493 8.30493 9.2132L2.46859 9.20147L2.40994 7.17781C2.12252 6.90213 1.97001 6.82587 1.82337 6.80241C1.68259 6.77895 1.53595 6.79654 1.44797 6.8376Z" fill="#CEA183" stroke="#CEA183" stroke-width="0.3"/>
</svg>
