<svg width="17" height="17" viewBox="0 0 17 17" fill="none" xmlns="http://www.w3.org/2000/svg">
<path fill-rule="evenodd" clip-rule="evenodd" d="M12.0458 0.686589C11.9139 0.787043 11.713 0.956558 11.6125 1.06329C11.5058 1.17002 11.374 1.25792 11.3112 1.25792C11.2547 1.25792 11.0852 1.17002 10.9345 1.06957C10.7901 0.962837 10.5892 0.862383 10.4824 0.843548C10.3757 0.824713 10.1811 0.830991 10.043 0.856105C9.87972 0.887496 9.69765 0.98795 9.51558 1.15747C9.3649 1.30187 9.17027 1.52789 9.08237 1.66601C8.97773 1.83344 8.92541 2.01132 8.92541 2.19967C8.91913 2.36919 8.96936 2.55754 9.03842 2.67055C9.10121 2.77728 9.67881 3.38628 10.3192 4.03923L11.487 5.21328C7.01051 9.68347 5.63555 11.0396 5.5351 11.1149L5.36558 11.2405C3.5637 9.46373 2.94842 8.89868 2.83541 8.84217C2.7224 8.78567 2.51521 8.73544 2.36453 8.72916C2.22013 8.72916 2.03806 8.76683 1.95644 8.8045C1.8811 8.84845 1.68019 9.01169 1.51695 9.16865C1.34744 9.32561 1.15909 9.55791 1.09002 9.68975C1.02724 9.81532 0.970735 9.99739 0.970735 10.0978C0.970735 10.192 1.01468 10.3678 1.07747 10.4871C1.13397 10.6064 1.24698 10.7885 1.32232 10.8952C1.40394 11.0019 1.473 11.1024 1.473 11.1338C1.473 11.1589 1.35999 11.297 1.22815 11.4477C1.09002 11.5921 0.91423 11.793 0.83889 11.8997C0.757271 12.0065 0.681931 12.2011 0.669374 12.3392C0.656818 12.4836 0.688209 12.6908 0.744715 12.8289C0.80122 12.9545 1.12142 13.3375 1.473 13.6891C1.84971 14.0658 2.10084 14.3671 2.10084 14.4425C2.10084 14.5115 1.93132 14.7438 1.72414 14.9636C1.46673 15.2273 1.34744 15.4031 1.34744 15.5098C1.34744 15.5977 1.37883 15.7044 1.42278 15.7484C1.46673 15.7923 1.57346 15.8237 1.66135 15.8237C1.76809 15.8237 1.95644 15.6856 2.23896 15.4156C2.47754 15.1896 2.691 15.0075 2.72867 15.0075C2.76007 15.0075 3.11165 15.3152 3.49463 15.6981C4.03457 16.2192 4.26687 16.4013 4.45522 16.4578C4.6373 16.508 4.7817 16.508 4.97005 16.4578C5.1584 16.4076 5.35303 16.282 5.59788 16.0434C5.79879 15.8551 6.00598 15.7044 6.0562 15.6981C6.10643 15.6981 6.21944 15.7672 6.30734 15.8551C6.39523 15.943 6.60242 16.0623 6.77821 16.1188C7.06702 16.213 7.11725 16.213 7.37466 16.1188C7.56301 16.056 7.76392 15.9053 7.96482 15.6856C8.13434 15.5035 8.31013 15.2587 8.35408 15.1519C8.40431 15.0389 8.44198 14.8694 8.44198 14.7752C8.44198 14.6748 8.40431 14.499 8.35408 14.3797C8.30385 14.2478 7.79531 13.6891 7.09841 12.9859C6.45802 12.3329 5.93064 11.7867 5.93064 11.7616C5.93064 11.7302 7.28676 10.3615 8.94425 8.71661C10.6017 7.0654 11.9704 5.72183 11.983 5.73439C12.0018 5.74067 12.5292 6.25549 13.1633 6.87705C13.7974 7.50488 14.3876 8.06366 14.4818 8.12016C14.5948 8.18922 14.7831 8.22689 14.984 8.22689C15.2414 8.22062 15.3733 8.18294 15.5616 8.0511C15.6935 7.95692 15.9132 7.75602 16.0451 7.59906C16.1832 7.4421 16.3088 7.21608 16.3276 7.09679C16.3527 6.9775 16.3527 6.77032 16.3276 6.64475C16.3088 6.5129 16.2083 6.31827 16.1016 6.20526C16.0011 6.09225 15.9195 5.94157 15.9132 5.87251C15.9132 5.80345 16.0011 5.66532 16.1079 5.55859C16.2146 5.45186 16.3904 5.25723 16.4908 5.11911C16.6415 4.91192 16.6666 4.80519 16.6666 4.52266C16.6603 4.23386 16.629 4.13341 16.4469 3.89483C16.3339 3.73787 16.0074 3.38628 15.7311 3.11003C15.3293 2.7145 15.2289 2.58265 15.2603 2.4822C15.2854 2.41314 15.4172 2.24362 15.5616 2.1055C15.6998 1.96737 15.8693 1.77274 15.9258 1.67857C15.9886 1.58439 16.0388 1.47138 16.0388 1.43371C16.0451 1.38976 15.9886 1.30187 15.9195 1.23281C15.8442 1.15747 15.75 1.13235 15.6558 1.15119C15.5742 1.17002 15.3293 1.35837 15.1096 1.56556C14.8961 1.77902 14.6827 1.94854 14.6387 1.94854C14.601 1.94854 14.2934 1.67857 13.9669 1.34582C13.6405 1.01934 13.2638 0.692867 13.1319 0.623805C13.0001 0.554743 12.774 0.504517 12.5983 0.504517C12.3597 0.504517 12.2404 0.542187 12.0458 0.686589ZM12.4601 1.23908C12.4099 1.25792 12.2592 1.37721 12.1274 1.50278C12.0018 1.62834 11.8951 1.7853 11.8951 1.85436C11.8951 1.93598 12.5041 2.58265 13.5588 3.62486C14.4755 4.53522 15.2728 5.27607 15.3356 5.27607C15.3921 5.27607 15.5428 5.16934 15.6684 5.04377C15.7939 4.91192 15.9258 4.74869 15.9635 4.67962C16.0074 4.58545 16.0074 4.51011 15.9446 4.3971C15.9007 4.3092 15.1724 3.5558 14.3311 2.72078C13.3265 1.71624 12.7615 1.20141 12.6799 1.20141C12.6108 1.20141 12.5104 1.22025 12.4601 1.23908ZM9.90484 1.70996C9.79811 1.82297 9.6851 1.97365 9.64743 2.04271C9.60348 2.13689 9.60348 2.21223 9.66626 2.32524C9.71649 2.41314 10.8905 3.62486 12.2843 5.01865C14.8082 7.54255 14.8145 7.54883 15.0343 7.51116C15.1724 7.48605 15.3293 7.39187 15.4612 7.25375C15.5868 7.11563 15.6621 6.97122 15.6621 6.85821C15.6621 6.72009 15.2289 6.25549 13.0754 4.10201C10.8026 1.83553 10.4573 1.51533 10.2878 1.50905C10.156 1.50905 10.043 1.56556 9.90484 1.70996ZM1.92505 9.69603C2.03806 9.5893 2.17618 9.48257 2.22641 9.46373C2.27664 9.4449 2.38337 9.43862 2.45871 9.45745C2.54033 9.47001 3.70182 10.5813 5.1584 12.0379C7.48767 14.3608 7.71997 14.6057 7.71997 14.7941C7.71997 14.9447 7.66347 15.064 7.50023 15.2273C7.33071 15.3968 7.23026 15.447 7.06074 15.447C6.85356 15.447 6.66521 15.2712 4.27943 12.8854C1.88738 10.4934 1.72414 10.3176 1.72414 10.1104C1.72414 9.94089 1.77437 9.84043 1.92505 9.69603ZM1.62997 11.9939C1.43534 12.1948 1.3286 12.3518 1.33488 12.446C1.34116 12.5464 1.85599 13.0989 2.96098 14.2039C3.99063 15.2335 4.62474 15.8237 4.70636 15.8237C4.77542 15.8237 4.98261 15.6856 5.16468 15.5223C5.34047 15.3591 5.49115 15.1833 5.49115 15.1331C5.49115 15.0829 4.73775 14.2855 3.81483 13.3626C2.88564 12.4334 2.08829 11.68 2.03178 11.68C1.97528 11.68 1.7932 11.8181 1.62997 11.9939Z" fill="#CEA183" stroke="#CEA183" stroke-width="0.3"/>
</svg>
