<svg width="16" height="17" viewBox="0 0 16 17" fill="none" xmlns="http://www.w3.org/2000/svg">
<path fill-rule="evenodd" clip-rule="evenodd" d="M10.5688 0.543968C10.5117 0.565405 10.4331 0.615422 10.3902 0.665441C10.3473 0.708315 10.1544 0.872663 9.94718 1.02987C9.73996 1.18707 9.37554 1.55864 9.13259 1.8516C8.89678 2.14457 8.59667 2.57331 8.4752 2.79482C8.34658 3.02348 8.19652 3.21641 8.13935 3.23784C8.0679 3.25213 7.92499 3.10922 7.7392 2.8234C7.57486 2.5876 7.23901 2.20888 6.98892 1.98023C6.73883 1.75871 6.28865 1.4586 5.99569 1.31569C5.59554 1.11561 5.30257 1.02987 4.84525 0.965556C4.3665 0.901246 4.18786 0.908392 4.0378 0.972702C3.93062 1.02987 3.83058 1.15134 3.802 1.25852C3.78056 1.37285 3.78771 1.71584 3.83058 2.03024C3.86631 2.37323 3.97349 2.77338 4.09497 3.03062C4.20215 3.26642 4.38794 3.59512 4.50227 3.75947C4.63089 3.94525 4.6952 4.12389 4.67376 4.20964C4.65232 4.30253 4.55228 4.36684 4.40937 4.39542C4.28075 4.42401 4.04495 4.50975 3.88775 4.58835C3.73055 4.6741 3.42329 4.86703 3.20892 5.03138C2.99455 5.19573 2.70158 5.4744 2.55153 5.6459C2.40862 5.81739 2.1871 6.16752 2.05134 6.42476C1.91557 6.682 1.75837 7.04642 1.69406 7.2465C1.62261 7.43943 1.52257 7.91104 1.4654 8.28261C1.40109 8.65418 1.35107 9.11864 1.35107 9.31871C1.35107 9.51164 1.3868 9.93323 1.42968 10.2476C1.47255 10.562 1.57259 11.0908 1.65119 11.4267C1.72264 11.7625 1.83697 12.1769 1.90128 12.3556C1.96559 12.5342 2.17281 12.9987 2.36574 13.3917C2.55153 13.7847 2.87308 14.3278 3.06601 14.6064C3.26608 14.878 3.60907 15.2924 3.83773 15.5211C4.05924 15.7497 4.33792 15.9855 4.45939 16.0427C4.48893 16.0583 4.52523 16.0773 4.56582 16.0986C4.69216 16.1648 4.86011 16.2528 4.99531 16.3285C5.28113 16.4786 5.40261 16.5 6.08858 16.5C6.81028 16.5 6.87459 16.4857 7.2676 16.2785C7.56771 16.107 7.76779 16.0498 8.03217 16.0498C8.28941 16.0498 8.48949 16.107 8.74673 16.2499C9.06828 16.4357 9.18975 16.4571 9.89002 16.4857C10.5903 16.5143 10.7118 16.5 11.0333 16.3571C11.2334 16.2642 11.5549 16.0784 11.7479 15.9355C11.9479 15.7926 12.2409 15.5353 12.3981 15.3567C12.5625 15.1781 12.7697 14.9423 12.8626 14.8351C12.9555 14.7279 13.2341 14.2777 13.4842 13.8347C13.7272 13.3917 13.963 12.9058 14.0059 12.7486C14.0487 12.5914 14.1059 12.427 14.1416 12.3913C14.1702 12.3556 14.2274 12.1769 14.2774 11.9983C14.3274 11.8197 14.4274 11.3909 14.506 11.0336C14.6061 10.5692 14.649 10.119 14.649 9.4259C14.649 8.83281 14.6132 8.28261 14.5489 7.99678C14.4918 7.73954 14.3846 7.35368 14.3131 7.13932C14.2417 6.92495 14.1202 6.62484 14.0416 6.48193C13.9558 6.33902 13.7772 6.04605 13.6343 5.83883C13.4914 5.63161 13.1841 5.29576 12.9555 5.10283C12.7197 4.90276 12.4195 4.68839 12.2838 4.62408C12.148 4.55977 11.9051 4.45259 11.7479 4.38828C11.5692 4.31682 11.2477 4.2668 10.8904 4.2668C10.4045 4.25966 10.2187 4.30253 9.6828 4.50261C9.33266 4.63837 9.03969 4.76699 9.0254 4.79558C9.01111 4.8313 8.91822 4.85274 8.81818 4.85274C8.68242 4.85274 8.64669 4.82416 8.68242 4.72412C8.68797 4.70747 8.69639 4.68269 8.70669 4.65237C8.73619 4.56555 8.78111 4.43334 8.81818 4.31682C8.8682 4.15962 8.9468 3.93096 9.00397 3.81663C9.05399 3.69516 9.26835 3.34503 9.46843 3.03062C9.67565 2.71622 10.0758 2.23032 10.3688 1.95879C10.6617 1.68011 10.9833 1.39429 11.0905 1.31569C11.2334 1.2085 11.2763 1.10847 11.2834 0.901246C11.2834 0.708316 11.2477 0.615423 11.1405 0.565404C11.0619 0.522531 10.9261 0.493949 10.8404 0.501094C10.7475 0.501094 10.626 0.522531 10.5688 0.543968ZM4.85239 2.31607C4.81666 2.29463 4.78094 2.21603 4.78094 2.13743C4.78094 2.03024 4.83095 1.99452 4.95957 1.99452C5.05961 1.99452 5.37402 2.10885 5.65269 2.24461C5.93852 2.38038 6.28865 2.59474 6.42441 2.73051C6.56018 2.86627 6.75311 3.08064 6.85315 3.21641C6.94604 3.35217 7.11753 3.63799 7.22472 3.85236C7.33905 4.06673 7.42479 4.30968 7.42479 4.38828C7.42479 4.46688 7.4105 4.54548 7.38906 4.56692C7.37477 4.58835 7.20328 4.55977 7.0175 4.50261C6.82457 4.44544 6.49587 4.29538 6.2815 4.16677C6.06714 4.04529 5.76702 3.80949 5.62411 3.64514C5.47405 3.48794 5.27398 3.2307 5.18109 3.08064C5.08819 2.93773 4.9953 2.70907 4.96672 2.58045C4.94528 2.45898 4.88812 2.3375 4.85239 2.31607ZM4.74521 5.26004C4.54513 5.32435 4.22358 5.48155 4.03065 5.62446C3.83058 5.76737 3.58048 5.98174 3.45901 6.10321C3.33753 6.22469 3.13031 6.51766 2.9874 6.75346C2.85163 6.98212 2.68014 7.33225 2.61583 7.53232C2.55152 7.72525 2.45863 8.21115 2.41576 8.60416C2.3443 9.1758 2.3443 9.49021 2.41576 10.1762C2.46577 10.6478 2.55867 11.1909 2.61583 11.3909C2.65548 11.5099 2.70329 11.6669 2.74584 11.8066C2.7723 11.8935 2.79673 11.9738 2.81591 12.034C2.86593 12.1912 2.95882 12.4342 3.01598 12.5699C3.08029 12.7057 3.1446 12.8701 3.16604 12.9272C3.19462 12.9844 3.27322 13.1273 3.34468 13.2488C3.42328 13.3631 3.5519 13.5918 3.6305 13.749C3.7091 13.9062 4.04494 14.3135 4.36649 14.6564C4.74521 15.0495 5.0739 15.3281 5.28112 15.421C5.45976 15.4996 5.73129 15.5854 5.8885 15.6139C6.06714 15.6425 6.26721 15.6282 6.42441 15.5711C6.56018 15.5211 6.85315 15.3996 7.06751 15.2995C7.31761 15.1852 7.63201 15.1066 7.92498 15.0852C8.34657 15.0566 8.45375 15.0852 9.104 15.3567C9.72566 15.6211 9.86143 15.6497 10.1544 15.6139C10.3473 15.5925 10.6331 15.4996 10.7975 15.4067C10.9618 15.321 11.2548 15.1066 11.4549 14.928C11.6478 14.7493 11.9551 14.4135 12.1337 14.1777C12.3124 13.9419 12.591 13.4917 12.7554 13.1773C12.9197 12.8629 13.1555 12.2984 13.2699 11.9268C13.3913 11.5553 13.5271 11.0694 13.57 10.855C13.6128 10.6406 13.6772 10.169 13.7057 9.8189C13.7486 9.36159 13.7415 8.99716 13.6772 8.56843C13.62 8.23259 13.5271 7.78242 13.4556 7.56805C13.3913 7.35368 13.2699 7.04643 13.1913 6.88922C13.1055 6.73202 12.8983 6.43191 12.7197 6.21754C12.5339 6.00317 12.1909 5.71735 11.9265 5.5673C11.6693 5.41724 11.3263 5.26004 11.1548 5.21716C10.919 5.15285 10.7689 5.16 10.4474 5.25289C10.2187 5.31005 9.83999 5.45297 9.60419 5.5673C9.36838 5.68162 9.04683 5.82454 8.88963 5.88885C8.70385 5.96745 8.41088 6.01032 8.06789 6.01032C7.60343 6.00317 7.43194 5.96745 6.81742 5.70306C6.42441 5.54586 5.89564 5.34578 5.6384 5.27433C5.38116 5.19572 5.15965 5.13856 5.13821 5.14571C5.11678 5.15285 4.94528 5.20287 4.74521 5.26004Z" fill="#CEA183" stroke="#CEA183" stroke-width="0.5"/>
</svg>
