<svg width="16" height="17" viewBox="0 0 16 17" fill="none" xmlns="http://www.w3.org/2000/svg">
<path fill-rule="evenodd" clip-rule="evenodd" d="M4.01056 0.612465C3.91309 0.672445 3.77064 0.882379 3.68067 1.07732C3.59819 1.27976 3.44824 1.72212 3.35827 2.07451C3.2608 2.4269 3.14084 2.98172 3.08835 3.31162C3.02837 3.65651 3.01337 4.11387 3.03587 4.39878C3.06586 4.6687 3.14084 5.08857 3.20831 5.33599C3.2683 5.58341 3.41075 5.97329 3.52322 6.19822C3.62818 6.42315 3.80063 6.73055 3.8981 6.87301C3.99557 7.01546 4.2205 7.28538 4.39294 7.47282C4.56539 7.66026 4.95527 7.97516 5.26267 8.1851C5.63756 8.44002 6.07992 8.64246 6.61225 8.8224L7.39951 9.08482L7.43699 14.5206C6.88217 14.5881 6.60475 14.6406 6.4623 14.6856C6.31984 14.7305 6.01244 14.828 5.78751 14.9105C5.56258 14.9855 5.26267 15.1129 5.12771 15.1804C4.98526 15.2479 4.79782 15.3903 4.70035 15.4953C4.5429 15.6603 4.5279 15.7052 4.61038 15.8627C4.67036 15.9752 4.8428 16.0876 5.07523 16.1701C5.28517 16.2451 5.69004 16.3426 5.97495 16.4025C6.31984 16.47 7.05461 16.5 8.11178 16.5C9.37889 16.5 9.85124 16.47 10.3236 16.3575C10.6535 16.2901 11.0509 16.1551 11.2083 16.0651C11.3658 15.9752 11.4857 15.8477 11.4857 15.7727C11.4857 15.7052 11.3583 15.5403 11.2083 15.4053C11.0509 15.2779 10.7735 15.1054 10.586 15.023C10.3986 14.948 9.88123 14.783 9.42387 14.6706L8.59913 14.4681L8.56164 9.12231C8.91403 8.94986 9.06398 8.89738 9.12397 8.89738C9.18395 8.89738 9.3489 8.85239 9.48385 8.79241C9.61131 8.73243 9.80625 8.66495 9.91122 8.64245C10.0162 8.61996 10.3086 8.47751 10.5635 8.32006C10.8184 8.1626 11.1933 7.88519 11.3883 7.69775C11.5907 7.51031 11.8756 7.18791 12.0181 6.98547C12.168 6.77554 12.3929 6.37066 12.5354 6.08575C12.7153 5.69588 12.8128 5.35099 12.8953 4.73618C13.0003 3.99391 13.0003 3.84396 12.8953 3.23664C12.8278 2.86176 12.7003 2.29194 12.6104 1.96204C12.5204 1.63215 12.4154 1.32474 12.3779 1.28725C12.3405 1.24227 12.3105 1.15229 12.3105 1.07732C12.3105 1.00984 12.213 0.844893 12.0855 0.72493L11.8606 0.5C4.71534 0.5 4.15302 0.514996 4.01056 0.612465ZM4.58788 1.84958C4.50541 2.01453 4.41544 2.29194 4.39294 2.46438C4.36295 2.64433 4.31047 2.84677 4.28048 2.91424C4.23549 3.00422 4.24299 3.0642 4.30297 3.09419C4.35546 3.11668 4.61038 3.0642 4.8653 2.98172C5.12771 2.89175 5.43512 2.82427 5.56258 2.82427C5.68254 2.82427 5.92996 2.89925 6.10241 2.98172C6.28235 3.0717 6.75471 3.47657 7.15208 3.88144C7.55696 4.29381 7.97682 4.6687 8.08929 4.72118C8.20925 4.78116 8.48667 4.86364 8.71159 4.91612C8.93652 4.9686 9.27392 4.99859 9.46136 4.9761C9.6488 4.95361 9.94871 4.90113 10.1361 4.85614C10.3236 4.81115 10.541 4.73618 10.6235 4.69119C10.706 4.6537 11.0059 4.59372 11.2983 4.56373L11.8231 4.51125C11.8081 3.22165 11.7556 2.85426 11.6357 2.44939C11.5457 2.14199 11.4182 1.81209 11.3658 1.71462L11.2608 1.54967H4.73784L4.58788 1.84958Z" fill="#CEA183"/>
</svg>
