<svg width="17" height="17" viewBox="0 0 17 17" fill="none" xmlns="http://www.w3.org/2000/svg">
<path fill-rule="evenodd" clip-rule="evenodd" d="M6.82788 5.07015C6.96252 5.00679 7.13677 4.93551 7.22389 4.90383C7.31101 4.87215 7.5407 4.84839 7.73871 4.84047C7.94464 4.84047 8.24561 4.90383 8.45153 4.99887C8.64954 5.08599 8.91091 5.27608 9.02971 5.41073C9.15644 5.55329 9.30692 5.7909 9.37029 5.94138C9.43365 6.09187 9.48117 6.4166 9.48117 6.65421C9.48117 6.89182 9.41781 7.24823 9.2198 7.80265L9.52077 8.31747C9.8059 8.79268 9.82966 8.87981 9.82966 9.42631C9.82966 9.90152 9.79006 10.0916 9.63166 10.3767C9.52869 10.5747 9.31485 10.8599 9.15644 11.0104C8.99803 11.1608 8.68914 11.3509 8.48322 11.4222C8.26937 11.5014 7.92088 11.5648 7.69911 11.5648C7.48526 11.5648 7.12885 11.5014 6.90708 11.4301C6.66947 11.343 6.39226 11.1688 6.20218 10.9708C6.03585 10.7965 5.82992 10.5035 5.7428 10.3134C5.64776 10.0916 5.60023 9.79856 5.60023 9.40254C5.60816 8.88773 5.63192 8.77684 5.91705 8.2541C6.09129 7.94521 6.2101 7.668 6.17842 7.65216C6.13881 7.63632 6.05169 7.44624 5.98041 7.21655C5.90121 6.99478 5.83784 6.73341 5.83784 6.63045C5.83784 6.5354 5.87744 6.32948 5.93289 6.17899C5.98041 6.02851 6.09921 5.7909 6.18634 5.65625C6.28138 5.52953 6.4081 5.3632 6.47147 5.29984C6.53483 5.23648 6.69323 5.13352 6.82788 5.07015ZM7.1051 6.63045C7.09718 6.52748 7.16846 6.36908 7.2635 6.27404C7.36647 6.16315 7.52487 6.09979 7.68328 6.09979C7.85224 6.09451 8.00273 6.16051 8.13473 6.2978C8.30106 6.46412 8.32482 6.54332 8.26938 6.75717C8.22977 6.89182 8.14265 7.05022 8.07137 7.10566C8.00009 7.16111 7.84168 7.20863 7.72288 7.20863C7.58823 7.20863 7.42191 7.12943 7.3031 7.01062C7.19222 6.89974 7.1051 6.73341 7.1051 6.63045ZM6.99421 8.84021C7.06549 8.761 7.19222 8.65804 7.28726 8.62636C7.38231 8.58676 7.61991 8.57092 7.81792 8.59468C8.06345 8.61844 8.2377 8.68972 8.37234 8.83228C8.53075 8.99069 8.57035 9.11742 8.57035 9.41839C8.57035 9.72728 8.53075 9.854 8.37234 10.0203C8.26146 10.1312 8.04761 10.2579 7.89712 10.3055C7.69912 10.3688 7.56447 10.3688 7.42191 10.3055C7.31102 10.2579 7.13678 10.1312 7.02589 10.0124C6.85957 9.84608 6.82789 9.74312 6.84373 9.40254C6.85957 9.16494 6.92293 8.92733 6.99421 8.84021Z" fill="#CEA183"/>
<path d="M11.5008 6.20275C11.588 6.06019 11.7068 5.93346 11.7701 5.91762C11.8414 5.89386 11.9602 5.87802 12.0394 5.8701C12.1107 5.8701 12.2612 5.94138 12.3721 6.03643C12.483 6.13939 12.6414 6.4166 12.7206 6.65421C12.7998 6.89182 12.8948 7.33535 12.9265 7.64424C12.9582 7.94521 12.9423 8.48379 12.8948 8.83228C12.8473 9.18078 12.7443 9.64807 12.6651 9.86984C12.5938 10.0916 12.4592 10.353 12.3721 10.448C12.277 10.551 12.1186 10.6143 11.9761 10.6143C11.8414 10.6143 11.6592 10.5351 11.5563 10.4322C11.4454 10.3292 11.382 10.1629 11.382 10.0203C11.382 9.88568 11.4375 9.62431 11.5088 9.42631C11.588 9.20454 11.6355 8.761 11.6434 8.23826C11.6592 7.61256 11.6196 7.28783 11.5088 6.93142C11.3583 6.47204 11.3583 6.44828 11.5008 6.20275Z" fill="#CEA183"/>
<path fill-rule="evenodd" clip-rule="evenodd" d="M8.69809 0.524869C8.14916 0.508968 7.53282 0.515696 7.3206 0.534989C7.095 0.555498 6.71375 0.63726 6.45126 0.716007C6.36837 0.740875 6.27551 0.769166 6.18143 0.797827L6.18132 0.79786C5.99193 0.855563 5.79761 0.914764 5.66976 0.950563L5.65926 0.953502L5.64888 0.956824C5.40749 1.03407 4.95683 1.23164 4.61908 1.40447C4.25581 1.58657 3.68318 1.96739 3.32561 2.25685L3.32233 2.2595L3.31909 2.26221C2.96744 2.55525 2.48234 3.0222 2.2257 3.32309L2.22295 3.32632L2.22024 3.32958C1.97639 3.62389 1.6276 4.10622 1.44556 4.43389L1.433 4.4565C1.28224 4.72786 1.07996 5.09192 1.00029 5.26011C0.909573 5.45163 0.772642 5.84245 0.683911 6.13285C0.588197 6.44609 0.463442 6.98785 0.403991 7.36154L0.40389 7.36218L0.40379 7.36282C0.332119 7.81972 0.316609 8.37935 0.350249 8.91757L0.350437 8.92059L0.350657 8.92361C0.382963 9.36782 0.464261 9.97591 0.549808 10.2953C0.614052 10.5599 0.70087 10.8992 0.740903 11.0514C0.796956 11.2644 0.961428 11.6477 1.11513 11.9307C1.22032 12.1347 1.34907 12.3765 1.43366 12.5354L1.43396 12.536C1.4588 12.5826 1.47981 12.6221 1.49528 12.6513L1.49882 12.658L1.50254 12.6646C1.58725 12.8152 1.76145 13.0849 1.91456 13.2831L1.91867 13.2884L1.9229 13.2936C2.07888 13.4863 2.4706 13.9014 2.7962 14.227C3.19084 14.6216 3.75322 15.0469 4.21888 15.323C4.63948 15.5752 5.24245 15.8697 5.58497 15.9959C5.93058 16.1232 6.54557 16.2732 6.95026 16.3475C7.36996 16.4246 8.00003 16.484 8.36441 16.484C8.71867 16.484 9.2505 16.4422 9.57091 16.3888C9.88482 16.3365 10.3697 16.2192 10.6765 16.1254C10.9935 16.0285 11.4797 15.8352 11.7862 15.6905L11.7922 15.6877L11.7982 15.6847C12.1023 15.5327 12.5517 15.275 12.8125 15.1011C13.0894 14.9165 13.5456 14.5342 13.8475 14.2408C14.1405 13.9558 14.4756 13.6048 14.6139 13.4492L14.6147 13.4483L14.6154 13.4475C14.7097 13.3406 14.8297 13.1621 14.9371 12.9938C15.0527 12.8125 15.1805 12.6002 15.2956 12.3988L15.2966 12.397L15.2976 12.3953C15.529 11.9838 15.8154 11.337 15.9477 10.9224C16.08 10.5079 16.2134 9.84479 16.2644 9.42794L16.2652 9.42199L16.2658 9.41604C16.3033 9.04862 16.3402 8.56522 16.3321 8.35096C16.33 8.15127 16.2865 7.75104 16.2489 7.46376C16.2105 7.11045 16.074 6.52292 15.959 6.13685C15.8386 5.73268 15.603 5.1417 15.4243 4.80212C15.2643 4.49812 15.0251 4.08387 14.8858 3.89479L14.8799 3.88683L14.8738 3.87908C14.7481 3.71979 14.4647 3.37987 14.2517 3.12751L14.2512 3.12688L14.2507 3.12626C13.9939 2.82359 13.5241 2.39882 13.1997 2.15128C12.8743 1.90288 12.3634 1.5759 12.0474 1.4091C11.7282 1.24065 11.1106 0.982518 10.643 0.837595C10.296 0.724693 10.0302 0.648255 9.73154 0.600416C9.43665 0.553189 9.12785 0.536811 8.69809 0.524869ZM7.42816 1.71815C7.56438 1.70577 8.12003 1.69665 8.66401 1.71242L8.66473 1.71244C9.09016 1.72426 9.33173 1.73957 9.54366 1.77351C9.75067 1.80666 9.94728 1.86049 10.2794 1.96862L10.2836 1.96999L10.2879 1.97131C10.6911 2.09593 11.2428 2.32778 11.4929 2.45978C11.7471 2.59395 12.2025 2.88474 12.479 3.09572C12.7563 3.30733 13.1572 3.67401 13.3442 3.89417C13.5546 4.14359 13.8189 4.46082 13.9345 4.60662C14.0201 4.72543 14.2193 5.06355 14.373 5.35545C14.5111 5.61782 14.719 6.13568 14.8204 6.47601C14.9263 6.83147 15.042 7.34669 15.0682 7.59626L15.069 7.60392L15.07 7.61157C15.1104 7.91854 15.1442 8.26045 15.1442 8.3657V8.38133L15.145 8.39693C15.15 8.4924 15.1248 8.89231 15.0845 9.28934C15.0399 9.64917 14.9206 10.233 14.8159 10.5612C14.7108 10.8905 14.4592 11.4621 14.2631 11.8111C14.1567 11.9972 14.0393 12.1921 13.9355 12.3549C13.8238 12.53 13.75 12.6324 13.725 12.6609C13.6091 12.7912 13.2957 13.1202 13.0193 13.3889C12.7509 13.6499 12.3517 13.9805 12.1535 14.1126C11.9406 14.2545 11.5391 14.4855 11.2729 14.6191C11.0086 14.7434 10.5807 14.9124 10.3293 14.9892C10.0659 15.0697 9.63195 15.1742 9.37559 15.2169C9.12574 15.2585 8.65961 15.2959 8.36441 15.2959C8.07933 15.2959 7.52136 15.2445 7.16488 15.179C6.79338 15.1108 6.25201 14.9756 5.99568 14.8811C5.73664 14.7857 5.20007 14.5263 4.8287 14.3034L4.82731 14.3026L4.82591 14.3018C4.43645 14.071 3.95407 13.7047 3.63627 13.3869C3.31621 13.0668 2.9679 12.6949 2.8504 12.5511C2.73722 12.4038 2.60049 12.192 2.54137 12.0881C2.52457 12.0564 2.50329 12.0164 2.47893 11.9707C2.39333 11.8099 2.26964 11.5776 2.16817 11.3806L2.16495 11.3743L2.16159 11.3682C2.10111 11.2573 2.03791 11.1243 1.98532 11.0013C1.92968 10.8712 1.8982 10.7808 1.88983 10.749C1.85104 10.6016 1.76489 10.2648 1.70258 10.0078L1.70059 9.99961L1.69837 9.99147C1.64235 9.78608 1.56669 9.26283 1.53579 8.84045C1.50634 8.36618 1.52252 7.89768 1.57739 7.54752C1.62887 7.22422 1.74162 6.73685 1.8201 6.48002C1.90561 6.20015 2.02213 5.87814 2.07397 5.7687C2.13463 5.64063 2.31917 5.30772 2.4841 5.01086C2.61829 4.76931 2.91697 4.35128 3.1323 4.09092C3.33544 3.85351 3.76437 3.43803 4.07638 3.17762C4.38352 2.92951 4.88352 2.60052 5.15306 2.46575L5.15564 2.46446L5.15821 2.46314C5.46379 2.30663 5.84237 2.14389 6.00202 2.09125C6.14314 2.05145 6.35671 1.9864 6.5484 1.92801L6.54848 1.92799C6.6378 1.90078 6.72237 1.87503 6.79264 1.85394C7.00537 1.79013 7.30527 1.72932 7.42816 1.71815Z" fill="#CEA183"/>
</svg>
