<svg width="17" height="17" viewBox="0 0 17 17" fill="none" xmlns="http://www.w3.org/2000/svg">
<path fill-rule="evenodd" clip-rule="evenodd" d="M2.125 0.691666C1.85833 0.824999 1.70833 0.975 1.56667 1.25L1.375 1.625C1.375 13.9833 1.4 15.3833 1.48333 15.6083C1.55 15.75 1.75833 16.0167 1.96667 16.1917L2.33333 16.5C13.825 16.5 14.9167 16.4833 15.1083 16.3833C15.2333 16.3167 15.4167 16.175 15.5167 16.0667C15.625 15.9667 15.7667 15.6667 15.8333 15.4167C15.9333 15.025 15.9583 13.9833 15.9583 8.625C15.9583 4.86667 15.925 2.09167 15.875 1.79167C15.8333 1.51667 15.725 1.2 15.6417 1.08333C15.55 0.966667 15.3417 0.791666 15.1583 0.691666L14.8333 0.5L2.5 0.508334L2.125 0.691666ZM2.70835 1.475C2.64168 1.50833 2.54168 1.58333 2.48335 1.65833C2.41668 1.74167 2.37501 2.10833 2.37501 2.625C2.36668 3.20833 2.40001 3.49167 2.47501 3.55833C2.55835 3.64167 3.99168 3.65834 8.79168 3.64167L15 3.625C15 1.75 14.9833 1.64166 14.8333 1.53333C14.6917 1.43333 13.7667 1.41667 8.75001 1.425C5.50001 1.425 2.77501 1.45 2.70835 1.475ZM2.41668 4.725C2.37501 4.75 2.35001 7.10833 2.35835 9.95C2.36668 15.0167 2.37501 15.1333 2.54168 15.3583L2.70835 15.5833C14.6 15.5833 14.7083 15.5833 14.875 15.4167C15.0417 15.25 15.0417 15.15 15.0167 9.975L15 4.70833C5.30001 4.675 2.45835 4.69167 2.41668 4.725Z" fill="#CEA183"/>
<path d="M10.5167 2.425C10.55 2.34167 10.65 2.23333 10.75 2.18333C10.8417 2.13333 11.1167 2.09167 11.35 2.09167C11.5917 2.08333 11.8667 2.11667 11.9583 2.16667C12.05 2.21667 12.1583 2.33333 12.2 2.44167C12.2444 2.56389 12.2305 2.68889 12.1583 2.81667C12.05 2.98333 11.975 3 11.3583 3C10.7 3.00833 10.6583 2.99167 10.5583 2.79167C10.5083 2.675 10.4833 2.51667 10.5167 2.425Z" fill="#CEA183"/>
<path d="M12.9417 2.55833C12.925 2.33333 12.9667 2.25833 13.125 2.18333C13.2417 2.13333 13.575 2.09167 13.875 2.09167C14.275 2.09167 14.4583 2.125 14.5667 2.23333C14.65 2.30833 14.7083 2.45 14.7083 2.54167C14.7083 2.63333 14.6417 2.775 14.5583 2.85833C14.45 2.975 14.2833 3.00833 13.8583 3C13.5417 3 13.2167 2.96667 13.125 2.91667C13.0167 2.85833 12.95 2.74167 12.9417 2.55833Z" fill="#CEA183"/>
<path fill-rule="evenodd" clip-rule="evenodd" d="M7.87499 5.71667C7.75833 5.74167 7.49999 5.825 7.29166 5.9C7.08333 5.975 6.80833 6.1 6.66666 6.16667C6.52499 6.23333 6.24999 6.41667 6.04166 6.55833C5.83333 6.70833 5.53333 6.99167 5.36666 7.18333C5.19999 7.38333 4.92499 7.825 4.74999 8.16667C4.53333 8.59167 4.39999 9.025 4.31666 9.5C4.21666 10.1083 4.21666 10.2917 4.31666 10.8333C4.38333 11.175 4.56666 11.7417 4.73333 12.0833C4.89999 12.4333 5.20833 12.9 5.43333 13.1333C5.64999 13.3667 6.01666 13.6917 6.24999 13.85C6.47499 14 6.84999 14.2 7.08333 14.2917C7.30833 14.375 7.76666 14.4917 8.08333 14.55C8.56666 14.6333 8.79166 14.625 9.41666 14.525C9.87499 14.45 10.375 14.2917 10.7083 14.1333C11.0333 13.975 11.4583 13.6667 11.8 13.3333C12.1 13.0333 12.4667 12.5917 12.6167 12.3583C12.7583 12.1167 12.9167 11.7583 12.9667 11.5667C13.0167 11.3667 13.0917 10.9833 13.1333 10.7083C13.175 10.4333 13.1833 10 13.1583 9.75C13.1333 9.5 13.05 9.08333 12.9833 8.83333C12.9083 8.58333 12.7417 8.16667 12.6083 7.91667C12.4667 7.66667 12.2 7.3 12.0167 7.1C11.825 6.9 11.425 6.575 11.125 6.38333C10.825 6.18333 10.375 5.95833 10.125 5.875C9.84166 5.78333 9.36666 5.71667 8.87499 5.7C8.44166 5.69167 7.99166 5.7 7.87499 5.71667ZM8.12501 6.66667C7.91668 6.7 7.53334 6.825 7.26668 6.95C7.00834 7.06667 6.58334 7.36666 6.32501 7.6C6.06668 7.84167 5.80001 8.15833 5.72501 8.29167C5.65001 8.425 5.52501 8.70833 5.44168 8.91667C5.32501 9.21667 5.31668 9.31667 5.40001 9.40833C5.45834 9.46667 5.70834 9.60833 5.95834 9.725C6.25001 9.85 6.57501 9.91667 6.85834 9.91667C7.09168 9.91667 7.30834 9.875 7.33334 9.83333C7.35834 9.79167 7.55001 9.675 7.77501 9.58333C7.99168 9.49167 8.27501 9.39166 8.41668 9.36666C8.55834 9.34167 8.84168 9.36666 9.06668 9.40833C9.28334 9.45833 9.65834 9.59167 9.90001 9.70833C10.175 9.84167 10.475 9.91667 10.7333 9.91667C10.95 9.91667 11.225 9.85833 11.3583 9.79167C11.4833 9.725 11.6833 9.63333 11.8167 9.58333C11.9417 9.54167 12.0667 9.45 12.0917 9.39166C12.1167 9.34167 12.05 9.075 11.95 8.80833C11.8417 8.53333 11.5583 8.08333 11.325 7.80833C11.0417 7.475 10.7167 7.2 10.4083 7.025C10.125 6.875 9.68334 6.725 9.37501 6.675C9.07501 6.625 8.75834 6.59167 8.66668 6.59167C8.57501 6.6 8.33334 6.63333 8.12501 6.66667ZM8.29168 10.4333C8.04168 10.525 7.60834 10.675 7.33334 10.7667C6.89168 10.9167 6.77501 10.925 6.37501 10.8417C6.12501 10.7917 5.80834 10.6917 5.66668 10.6167C5.52501 10.55 5.37501 10.5 5.33334 10.5C5.28334 10.5 5.27501 10.6333 5.30001 10.85C5.33334 11.05 5.41668 11.3417 5.50001 11.5C5.57501 11.6583 5.68334 11.875 5.73334 11.9667C5.79168 12.0667 5.94168 12.2833 6.08334 12.45C6.22501 12.6167 6.52501 12.8833 6.75001 13.0333C6.98334 13.1833 7.35834 13.375 7.58334 13.4583C7.87501 13.5667 8.23334 13.6167 8.80001 13.6167C9.25001 13.625 9.65001 13.5833 9.71668 13.5333C9.78334 13.4833 10 13.3833 10.2083 13.3083C10.4167 13.225 10.7917 12.9667 11.05 12.725C11.3083 12.4917 11.6417 12.0833 11.7917 11.8333C11.9583 11.55 12.0833 11.2083 12.1167 10.9333C12.15 10.6667 12.1333 10.5 12.0833 10.5C12.0333 10.5 11.925 10.55 11.8333 10.6083C11.7417 10.675 11.4583 10.775 11.2083 10.8333C10.95 10.8917 10.625 10.9083 10.4583 10.875C10.3 10.8417 9.85834 10.6917 9.48334 10.5333C9.10001 10.375 8.78334 10.25 8.77501 10.2583C8.75834 10.2583 8.54168 10.3333 8.29168 10.4333Z" fill="#CEA183"/>
</svg>
