<svg width="21" height="28" viewBox="0 0 21 28" fill="none" xmlns="http://www.w3.org/2000/svg">
<path fill-rule="evenodd" clip-rule="evenodd" d="M8.98615 1.53045C8.83591 1.5605 8.3852 1.67068 7.98456 1.77083C7.57391 1.87099 6.97296 2.07131 6.64244 2.22155C6.31191 2.36177 5.72098 2.69229 5.34037 2.94269C4.95977 3.19309 4.3488 3.66383 3.99825 4.00437C3.64769 4.34491 3.16693 4.86574 2.93657 5.16621C2.69619 5.46669 2.3256 6.05762 2.10525 6.46827C1.8849 6.87892 1.59444 7.58003 1.45422 8.02073C1.314 8.46143 1.14373 9.2026 1.07362 9.67335C1.00351 10.1942 0.983474 10.8953 1.01352 11.4762C1.05358 11.997 1.16376 12.7482 1.27393 13.1288C1.37409 13.5094 1.52433 14.0102 1.61447 14.2306C1.6946 14.4509 1.87489 14.8516 2.00509 15.132C2.14531 15.4024 3.97822 18.0466 6.08155 20.9913C8.58551 24.4968 9.98773 26.3798 10.148 26.4499C10.3149 26.5167 10.4819 26.5167 10.6488 26.4499C10.809 26.3798 12.2113 24.5068 14.7152 20.9913C16.8186 18.0466 18.6515 15.4024 18.7917 15.132C18.9219 14.8516 19.1022 14.4509 19.1823 14.2306C19.2724 14.0102 19.4227 13.5094 19.5228 13.1288C19.633 12.7482 19.7432 11.997 19.7833 11.4762C19.8133 10.8953 19.7933 10.1942 19.7232 9.67335C19.653 9.2026 19.4828 8.46143 19.3426 8.02073C19.2023 7.58003 18.9119 6.87892 18.6915 6.46827C18.4712 6.05762 18.1006 5.46669 17.8602 5.16621C17.6298 4.86574 17.1491 4.34491 16.7985 4.00437C16.448 3.66383 15.817 3.17306 15.4063 2.91264C14.9957 2.64221 14.3847 2.31169 14.0542 2.18148C13.7237 2.04126 13.1628 1.85096 12.8022 1.74079C12.3214 1.59055 11.7806 1.53045 10.6989 1.51042C9.89759 1.49039 9.12637 1.50041 8.98615 1.53045ZM9.39682 7.22948C9.09634 7.30961 8.6256 7.51994 8.35517 7.70023C8.08474 7.88051 7.73418 8.17097 7.57393 8.35126C7.42369 8.52153 7.18331 8.8821 7.05311 9.15253C6.9229 9.41294 6.76265 9.87367 6.71257 10.1741C6.63244 10.5547 6.63244 10.9253 6.70255 11.376C6.76265 11.7366 6.89285 12.2174 7.00303 12.4578C7.10318 12.6881 7.40366 13.1088 7.67409 13.3892C7.9345 13.6697 8.41526 14.0403 8.74579 14.2105C9.30668 14.511 9.41685 14.531 10.3984 14.531C11.38 14.531 11.4901 14.501 12.051 14.2206C12.4216 14.0303 12.8623 13.6797 13.1828 13.3191C13.4933 12.9686 13.7938 12.5179 13.8939 12.2274C13.9941 11.957 14.1043 11.5063 14.1443 11.2258C14.1844 10.9354 14.1644 10.4947 14.0943 10.1741C14.0342 9.87367 13.8739 9.41294 13.7437 9.15253C13.6135 8.8821 13.3731 8.52153 13.2229 8.35126C13.0626 8.17097 12.7121 7.88051 12.4416 7.70023C12.1712 7.52996 11.7005 7.31962 11.4 7.22948C11.0995 7.13934 10.6488 7.06923 10.3984 7.07924C10.148 7.07924 9.69729 7.14936 9.39682 7.22948Z" stroke="#E2DBD6" stroke-width="2"/>
</svg>
