<svg width="25" height="25" viewBox="0 0 25 25" fill="none" xmlns="http://www.w3.org/2000/svg">
<path d="M12.1716 0.150202L12.0214 0.294433V1.67664C12.0214 3.0228 12.0274 3.05886 12.1596 3.2091C12.3759 3.45549 12.5863 3.46751 12.8026 3.25717L12.9829 3.07689V1.68265V0.294433L12.8327 0.150202C12.7425 0.0540481 12.6163 -3.86238e-05 12.5021 -3.86238e-05C12.3879 -3.86238e-05 12.2617 0.0540481 12.1716 0.150202Z" fill="#8F6244"/>
<path d="M4.82783 2.71635C4.66557 2.79448 4.55139 3.0589 4.59947 3.25722C4.6235 3.34135 5.06822 3.83414 5.61509 4.38101C6.60668 5.36058 6.70283 5.42669 7.00331 5.31251C7.15355 5.25241 7.29177 4.93991 7.2437 4.75361C7.20163 4.57933 5.53697 2.86659 5.27855 2.72837C5.09225 2.63222 5.00812 2.62621 4.82783 2.71635Z" fill="#8F6244"/>
<path d="M19.6836 2.75837C19.3891 2.93865 17.8026 4.5913 17.7605 4.75957C17.6884 5.04803 17.9288 5.3425 18.2353 5.34851C18.3855 5.34851 18.5718 5.19226 19.3951 4.36894C19.936 3.83409 20.3927 3.33529 20.4168 3.25716C20.4648 3.06486 20.3326 2.79442 20.1583 2.71029C19.954 2.62014 19.8939 2.62615 19.6836 2.75837Z" fill="#8F6244"/>
<path d="M11.7269 4.81369C10.7894 4.92787 9.70768 5.33652 8.89638 5.88941C8.40359 6.21994 7.60431 7.02523 7.2798 7.506C6.78701 8.23316 6.43244 9.0685 6.24013 9.9459C6.19806 10.1502 6.16201 10.6911 6.16802 11.2079C6.16802 12.4579 6.27018 12.8365 7.06345 14.4832C8.06705 16.5805 8.69205 18.2872 8.83629 19.351C8.92643 20.012 9.0346 20.2704 9.35311 20.5409C9.73172 20.8774 9.91201 20.9135 11.3543 20.9135H12.6344L12.8086 20.7392C13.0009 20.5409 13.031 20.3365 12.8988 20.0781C12.7546 19.8017 12.5923 19.7716 11.3363 19.7716C10.4168 19.7716 10.1584 19.7536 10.1043 19.6875C10.0683 19.6394 9.99614 19.351 9.94806 19.0445C9.7858 17.9507 9.05263 15.9735 8.02499 13.8221C7.46609 12.6622 7.35792 12.3197 7.29782 11.5445C7.08148 8.71393 9.2209 6.1959 12.0514 5.94951C12.6163 5.90143 12.6644 5.88941 12.8147 5.71513C13.031 5.46874 13.031 5.22835 12.8207 4.98797C12.6223 4.76561 12.394 4.72955 11.7269 4.81369Z" fill="#8F6244"/>
<path d="M14.4913 5.39665C14.3531 5.46276 14.2269 5.613 14.0947 5.85939C13.7522 6.4904 13.5238 6.65266 12.8627 6.76083C12.3459 6.83896 11.9733 7.32574 12.0394 7.83054C12.1055 8.32934 12.412 8.56973 13.1752 8.71997C14.4012 8.96636 15.2906 9.57934 15.9156 10.607C16.3844 11.3702 16.5767 12.512 16.3844 13.4015C16.2642 13.9664 15.9096 14.7116 15.555 15.1442C14.876 15.9736 13.7702 16.5265 12.7966 16.5265C12.0815 16.5265 11.6788 16.8029 11.5707 17.3738C11.5286 17.6022 11.6428 17.9628 11.8291 18.1731C12.0214 18.3834 12.388 18.5096 12.8507 18.5096C13.5178 18.5096 13.7522 18.6599 14.1308 19.3029C14.3952 19.7476 14.5514 19.8918 14.7918 19.8918C15.0442 19.8918 15.9757 19.4772 16.1079 19.3089C16.2522 19.1226 16.2642 18.8041 16.138 18.4495C16.0238 18.131 16.0238 17.6683 16.132 17.4099C16.2522 17.1154 17.1296 16.256 17.4 16.1659C17.6404 16.0878 18.037 16.1058 18.5719 16.232C19.1668 16.3642 19.311 16.256 19.6296 15.4207C19.906 14.7055 19.8399 14.5192 19.1728 14.1527C18.8723 13.9904 18.686 13.8342 18.5779 13.6779C18.4336 13.4555 18.4216 13.3834 18.4036 12.6442C18.3735 11.5805 18.4517 11.4183 19.1848 10.9916C19.8459 10.607 19.894 10.4387 19.5875 9.68752C19.3351 9.07454 19.1668 8.89425 18.8363 8.89425C18.6981 8.89425 18.4697 8.93631 18.3315 8.98439C18.013 9.09857 17.5442 9.09857 17.2918 8.9904C17.0514 8.88824 16.138 7.96276 16.0538 7.73439C15.9637 7.50002 15.9757 7.12141 16.0779 6.73078C16.2161 6.21997 16.1981 6.02165 15.9937 5.84136C15.8555 5.70915 14.894 5.28848 14.7377 5.28848C14.7137 5.28848 14.6055 5.33655 14.4913 5.39665Z" fill="#8F6244"/>
<path d="M11.3483 9.77158C11.0899 9.87975 11.0298 10.012 11.1199 10.2463C11.2161 10.4987 11.144 10.7091 10.8796 10.9675C10.6512 11.1898 10.6392 11.1959 10.2906 11.1598C9.88798 11.1177 9.85793 11.1358 9.70769 11.4963C9.60553 11.7427 9.57548 11.6886 10.0863 12.1394C10.1945 12.2355 10.2185 12.3197 10.2185 12.5901C10.2185 12.9987 10.1644 13.1069 9.88798 13.2752C9.6536 13.4134 9.62956 13.5276 9.76178 13.8461C9.86394 14.0865 9.99615 14.1406 10.2666 14.0624C10.531 13.9903 10.7353 14.0745 10.9877 14.3509C11.1861 14.5673 11.1921 14.5793 11.15 14.9459L11.1079 15.3245L11.3904 15.4447C11.7149 15.5829 11.8471 15.5408 11.9913 15.2644C12.1115 15.03 12.2498 14.9639 12.6103 14.9639C12.9288 14.9639 13.1873 15.1081 13.2534 15.3245C13.3195 15.5408 13.4877 15.5769 13.8002 15.4447L14.0827 15.3245L14.0406 14.9939C13.9986 14.6033 14.0767 14.405 14.3712 14.1526C14.5454 14.0084 14.5995 13.9963 14.9 14.0264C15.2726 14.0685 15.3267 14.0444 15.4349 13.804C15.549 13.5456 15.525 13.3533 15.3748 13.2752C15.0382 13.1069 14.9661 12.9807 14.9661 12.5901C14.9661 12.1995 15.0382 12.0733 15.3748 11.905C15.543 11.8148 15.549 11.5805 15.3868 11.31C15.2606 11.1057 15.2606 11.1057 14.906 11.1478L14.5514 11.1898L14.275 10.9314L13.9925 10.667L14.0286 10.2944C14.0647 9.94586 14.0587 9.91581 13.9204 9.82566C13.8423 9.77158 13.68 9.71749 13.5659 9.69345C13.3856 9.66941 13.3435 9.68143 13.2834 9.80162C13.1091 10.1382 12.9829 10.2163 12.6103 10.2163C12.1837 10.2163 12.0755 10.1622 11.9072 9.88576C11.775 9.65138 11.6849 9.63336 11.3483 9.77158ZM13.3495 11.2139C13.8483 11.4843 14.1728 12.0132 14.1788 12.5721C14.1969 13.4495 13.4757 14.1766 12.5923 14.1826C11.3303 14.1826 10.5671 12.7944 11.2582 11.7487C11.7269 11.0276 12.5983 10.8052 13.3495 11.2139Z" fill="#8F6244"/>
<path d="M1.66679 10.2404C1.44444 10.4448 1.44444 10.7573 1.66078 10.9315C1.81102 11.0517 1.89516 11.0577 3.18723 11.0577C4.47929 11.0577 4.56343 11.0517 4.71367 10.9315C4.90598 10.7813 4.92401 10.4808 4.75574 10.2705C4.64155 10.1262 4.62953 10.1262 3.2353 10.1082L1.82905 10.0902L1.66679 10.2404Z" fill="#8F6244"/>
<path d="M20.2846 10.2404C20.0743 10.4508 20.0803 10.7633 20.2906 10.9315C20.4409 11.0517 20.525 11.0577 21.8171 11.0577C23.1091 11.0577 23.1933 11.0517 23.3435 10.9315C23.5358 10.7813 23.5538 10.4808 23.3856 10.2705C23.2714 10.1262 23.2594 10.1262 21.8531 10.1082L20.4348 10.0902L20.2846 10.2404Z" fill="#8F6244"/>
<path d="M9.38313 21.9592C9.04659 22.1455 8.98049 22.5721 9.25092 22.8426L9.4252 23.0168H12.4901C15.4649 23.0168 15.555 23.0108 15.7052 22.8967C16.0117 22.6563 15.9637 22.1394 15.6211 21.9652C15.3807 21.839 9.60549 21.833 9.38313 21.9592Z" fill="#8F6244"/>
<path d="M10.7533 24.0325C10.6271 24.1647 10.579 24.2668 10.579 24.4291C10.579 24.5913 10.6271 24.6935 10.7533 24.8257L10.9276 25H12.5021H14.0766L14.2509 24.8257C14.3771 24.6935 14.4252 24.5913 14.4252 24.4291C14.4252 24.2668 14.3771 24.1647 14.2509 24.0325L14.0766 23.8582H12.5021H10.9276L10.7533 24.0325Z" fill="#8F6244"/>
</svg>
