<svg width="25" height="26" viewBox="0 0 25 26" fill="none" xmlns="http://www.w3.org/2000/svg">
<path d="M21.0904 13.7709C21.1871 13.2415 21.2376 12.696 21.2376 12.1386C21.2376 7.14672 17.1874 3.09998 12.1912 3.09998C7.195 3.09998 3.1448 7.14672 3.1448 12.1386C3.1448 14.183 3.82411 16.0689 4.96952 17.5832L6.40616 16.7522C5.39447 15.4874 4.78959 13.8836 4.78959 12.1386C4.78959 8.05435 8.10339 4.74337 12.1912 4.74337C16.279 4.74337 19.5928 8.05435 19.5928 12.1386C19.5928 12.5213 19.5637 12.8973 19.5076 13.2643L21.0904 13.7709Z" fill="#8F6244"/>
<path fill-rule="evenodd" clip-rule="evenodd" d="M15.2374 15.429C14.9929 15.6887 14.6799 15.896 14.2984 16.051C13.885 16.2199 13.3998 16.318 12.8428 16.3454V17.2929H12.1723V16.3448C11.6121 16.3159 11.1147 16.2139 10.6799 16.0388C10.1593 15.8291 9.75455 15.5104 9.46562 15.0829C9.17669 14.6553 9.02814 14.1147 9.01996 13.4611H10.958C10.9743 13.7307 11.0466 13.9554 11.1747 14.1351C11.3028 14.3149 11.4786 14.451 11.7021 14.5436C11.8447 14.602 12.0015 14.642 12.1723 14.6636V12.8211L11.5713 12.6808C10.8462 12.5147 10.2752 12.2464 9.85813 11.876C9.44109 11.5029 9.23393 10.9991 9.23666 10.3645C9.23393 9.84707 9.37294 9.39362 9.6537 9.00417C9.93445 8.61472 10.3229 8.31106 10.819 8.09318C11.2238 7.91539 11.6749 7.81014 12.1723 7.77743V6.83496H12.8428V7.77616C13.3555 7.80757 13.8094 7.91461 14.2043 8.09727C14.6841 8.31514 15.0561 8.62153 15.3205 9.01643C15.5849 9.41132 15.7199 9.86886 15.7253 10.389H13.7873C13.76 10.0895 13.6387 9.8566 13.4234 9.69047C13.2746 9.5723 13.0811 9.49548 12.8428 9.46001V11.2057L13.2762 11.3041C13.6905 11.394 14.0558 11.5138 14.372 11.6636C14.6909 11.8134 14.958 11.9918 15.1733 12.1987C15.3914 12.4057 15.5563 12.644 15.6681 12.9136C15.7239 13.0485 15.7662 13.1914 15.7948 13.3426C15.5622 13.579 15.3799 13.872 15.2717 14.2093C15.1401 14.6198 15.136 15.0406 15.2374 15.429ZM13.1822 14.5722C13.0806 14.6113 12.9675 14.6401 12.8428 14.6584V12.9901C12.9765 13.0308 13.0951 13.0734 13.1985 13.1179C13.3975 13.1996 13.5447 13.2977 13.6401 13.412C13.7355 13.5237 13.7846 13.6585 13.7873 13.8165C13.7846 13.9853 13.7314 14.1351 13.6278 14.2658C13.5243 14.3966 13.3757 14.4987 13.1822 14.5722ZM12.1723 9.45965V11.0413C12.1272 11.0273 12.0836 11.0128 12.0415 10.9977C11.8888 10.9433 11.758 10.8806 11.6489 10.8098C11.5426 10.7363 11.4609 10.6518 11.4036 10.5565C11.3491 10.4612 11.3246 10.3509 11.33 10.2256C11.3328 10.0731 11.3777 9.93831 11.465 9.8212C11.5522 9.70137 11.683 9.60741 11.8575 9.53932C11.9501 9.50317 12.055 9.47661 12.1723 9.45965Z" fill="#8F6244"/>
<path d="M17.6112 14.0953C17.1786 13.9569 16.7156 14.195 16.5771 14.6272C16.4385 15.0593 16.6768 15.5219 17.1094 15.6604L19.8145 16.5263L12.2269 19.7753L7.76716 17.5474L2.04731 20.856C1.52321 21.1592 1.34432 21.8295 1.64775 22.3531C1.95117 22.8768 2.62201 23.0555 3.14611 22.7524L7.84331 20.0352L12.1559 22.1897L20.9956 18.4044L20.0471 21.3627C19.9085 21.7949 20.1468 22.2575 20.5794 22.3959C21.0119 22.5344 21.4749 22.2963 21.6135 21.8641L23.5 15.9803L17.6112 14.0953Z" fill="#8F6244"/>
<path d="M17.6112 14.0953C17.1786 13.9569 16.7156 14.195 16.5771 14.6272C16.4385 15.0593 16.6768 15.5219 17.1094 15.6604L19.8145 16.5263L12.2269 19.7753L7.76716 17.5474L2.04731 20.856C1.52321 21.1592 1.34432 21.8295 1.64775 22.3531C1.95117 22.8768 2.62201 23.0555 3.14611 22.7524L7.84331 20.0352L12.1559 22.1897L20.9956 18.4044L20.0471 21.3627C19.9085 21.7949 20.1468 22.2575 20.5794 22.3959C21.0119 22.5344 21.4749 22.2963 21.6135 21.8641L23.5 15.9803L17.6112 14.0953Z" fill="#8F6244"/>
</svg>
