<svg width="25" height="25" viewBox="0 0 25 25" fill="none" xmlns="http://www.w3.org/2000/svg">
<path d="M13.6939 18.689L13.6938 18.6891L13.6984 18.6949L13.7499 18.7611C13.8336 18.8862 13.8508 19.0014 13.8438 19.2054C13.8181 19.368 13.7512 19.4907 13.6286 19.6391C13.5992 19.6606 13.5772 19.6706 13.5566 19.6773C13.5301 19.6859 13.497 19.692 13.4383 19.6984C13.2383 19.6792 13.0919 19.6218 12.9457 19.4975C12.7268 19.26 12.6095 19.0334 12.5945 18.7405C12.6026 18.5653 12.6418 18.4393 12.7351 18.3033C12.8022 18.245 12.8602 18.223 12.9179 18.2151C12.985 18.2059 13.0678 18.2136 13.1866 18.24C13.3907 18.3338 13.5416 18.4809 13.6939 18.689Z" stroke="#8F6244" stroke-width="0.5"/>
<path d="M15.7438 17.7257L15.5419 17.8732C15.6312 17.9954 15.669 18.0576 15.6926 18.1622C15.6581 18.3272 15.6057 18.445 15.5094 18.5455C15.2724 18.623 15.0659 18.6133 14.8073 18.531C14.6953 18.4826 14.6278 18.4368 14.5748 18.3853C14.5177 18.3299 14.4658 18.2567 14.3963 18.1357L14.3964 18.1357L14.3933 18.1306L14.341 18.0444C14.1829 17.7753 14.1078 17.5238 14.1408 17.2462C14.2002 17.0609 14.2671 16.9289 14.3772 16.8312C14.504 16.7932 14.5886 16.79 14.6928 16.8245C14.9417 16.9698 15.1008 17.2146 15.2947 17.5131C15.3228 17.5564 15.3517 17.6008 15.3816 17.6462L15.3816 17.6462L15.3825 17.6475C15.4348 17.7257 15.4891 17.801 15.5421 17.8734L15.7438 17.7257ZM15.7438 17.7257C15.8544 17.8771 15.9146 17.9751 15.9474 18.1619M15.7438 17.7257C15.6914 17.6542 15.6396 17.5822 15.5903 17.5085L15.9474 18.1619M15.9474 18.1619C15.9038 18.4018 15.8262 18.5971 15.6439 18.7633C15.3214 18.8825 15.044 18.8705 14.7197 18.7655L15.9474 18.1619Z" stroke="#8F6244" stroke-width="0.5"/>
<path d="M17.1293 16.2659L17.1293 16.2659L17.1302 16.2675L17.2795 16.5146L17.2799 16.5152L17.349 16.6309L17.349 16.6309L17.3506 16.6334C17.4074 16.726 17.4664 16.814 17.5276 16.9006C17.5436 16.9262 17.5516 16.9392 17.5569 16.9488C17.557 16.9502 17.5571 16.9519 17.5572 16.9539C17.5577 16.9648 17.5579 16.9784 17.558 16.9981C17.4934 17.1994 17.3808 17.3274 17.1789 17.4756C16.9912 17.5774 16.8196 17.6069 16.6057 17.5775C16.5009 17.5427 16.4372 17.5065 16.3863 17.4645C16.3295 17.4176 16.2754 17.3526 16.1994 17.2404L16.1994 17.2403L16.1968 17.2367L16.1344 17.148C16.1343 17.1479 16.1342 17.1477 16.1341 17.1476C16.0711 17.0573 16.0092 16.9659 15.9472 16.8733L15.947 16.8731L15.8865 16.7828C15.8864 16.7827 15.8863 16.7826 15.8862 16.7825C15.7492 16.5767 15.6553 16.4237 15.5976 16.2668C15.5463 16.1274 15.5211 15.977 15.5348 15.7777C15.619 15.6212 15.7306 15.5202 15.9013 15.4405C16.0227 15.4137 16.1171 15.4079 16.2044 15.4169C16.2928 15.4259 16.3857 15.4512 16.5032 15.4997C16.7685 15.6805 16.9346 15.9376 17.1293 16.2659Z" stroke="#8F6244" stroke-width="0.5"/>
<path d="M18.1019 16.1223L18.1017 16.122L18.0246 15.9971L17.9456 15.8677L17.9456 15.8677L17.9447 15.8662L17.8643 15.7363C17.8642 15.7362 17.8641 15.7361 17.8641 15.7359C17.7664 15.577 17.7084 15.4578 17.6764 15.3406C17.6467 15.2322 17.6358 15.113 17.6496 14.9514C17.6851 14.8543 17.7417 14.7815 17.8416 14.6858C17.9733 14.6307 18.0803 14.6221 18.2386 14.647C18.5473 14.7642 18.803 15.0116 18.9788 15.3181C19.0619 15.507 19.0858 15.6682 19.0517 15.8593C18.9613 16.0617 18.8163 16.2082 18.6067 16.3371C18.4948 16.3879 18.4051 16.4136 18.3232 16.4131C18.24 16.3292 18.1728 16.2374 18.1019 16.1223Z" stroke="#8F6244" stroke-width="0.5"/>
<path d="M12.0519 6.35459C12.988 6.18391 14.1636 6.70074 15.0623 6.9438C15.2642 6.99837 15.4664 7.05176 15.669 7.10368C15.7577 7.12656 15.8463 7.14994 15.9348 7.17357C16.0411 7.20193 16.1476 7.22951 16.2543 7.25615C16.3014 7.26906 16.3486 7.28197 16.3972 7.29527C16.4579 7.31111 16.4579 7.31111 16.5198 7.32727C16.8117 7.47834 16.9626 7.77873 17.103 8.06362C17.1201 8.0974 17.1372 8.13119 17.1548 8.166C17.1912 8.23785 17.2273 8.30979 17.2633 8.38183C17.3579 8.5712 17.4539 8.75986 17.5497 8.94861C17.5684 8.98563 17.5872 9.02266 17.6065 9.0608C17.7445 9.33272 17.8875 9.60138 18.0357 9.86786C18.2706 10.2914 18.4923 10.7213 18.7131 11.1523C18.7308 11.1869 18.7485 11.2214 18.7668 11.257C18.836 11.3921 18.9052 11.5271 18.9743 11.6622C19.0969 11.9013 19.2203 12.14 19.3455 12.3777C19.3618 12.4087 19.3781 12.4396 19.3949 12.4715C19.4925 12.656 19.5913 12.8399 19.6905 13.0235C19.753 13.1392 19.8154 13.2549 19.8778 13.3706C19.9236 13.4553 19.9696 13.5399 20.0156 13.6245C20.0436 13.6763 20.0715 13.7281 20.1003 13.7815C20.1255 13.8278 20.1506 13.8742 20.1766 13.922C20.2272 14.0255 20.2657 14.1106 20.2814 14.2243C20.2296 14.2914 20.2296 14.2914 20.1493 14.3536C20.1202 14.3762 20.0911 14.3988 20.0611 14.4221C20.03 14.4459 19.9988 14.4696 19.9666 14.4941C19.9364 14.5207 19.9061 14.5472 19.8749 14.5746C19.7882 14.6479 19.7069 14.7102 19.6069 14.7639C19.4692 14.7583 19.4692 14.7583 19.3371 14.674C19.2561 14.5873 19.1809 14.4972 19.1054 14.4058C18.9179 14.1992 18.675 14.0648 18.4017 14.0095C18.1211 13.9811 17.8581 13.9985 17.6113 14.1428C17.3779 14.3101 17.2376 14.4948 17.1335 14.7611C17.09 14.8658 17.09 14.8658 17.0436 14.9438C16.9121 14.9537 16.853 14.9203 16.7432 14.8516C16.4656 14.7381 16.0728 14.7759 15.7832 14.8383C15.4839 14.9457 15.2738 15.1243 15.0988 15.3881C14.9869 15.5911 14.94 15.7951 14.9028 16.0229C14.885 16.113 14.885 16.113 14.8401 16.158C14.7642 16.1628 14.6883 16.1663 14.6124 16.1693C14.3097 16.1951 14.1278 16.2951 13.9084 16.5C13.6418 16.7855 13.5683 17.0781 13.5542 17.462C13.5482 17.4917 13.5422 17.5214 13.536 17.5521C13.385 17.6024 13.2812 17.5955 13.1228 17.5886C12.8564 17.5874 12.6692 17.6119 12.4567 17.7769C12.2315 17.9846 12.0799 18.2187 12.034 18.5268C12.0157 18.7099 12.0019 18.8707 12.0323 19.0529C12.0239 19.0919 12.0156 19.1309 12.007 19.171C11.7055 19.3881 11.3419 19.5027 10.9727 19.4802C10.7181 19.4458 10.5 19.3756 10.3174 19.1886C10.1908 19.0251 10.1246 18.888 10.1182 18.6763C10.1983 18.5871 10.1983 18.5871 10.3206 18.5077C10.5226 18.3761 10.7236 18.2431 10.924 18.1091C11.1344 17.9686 11.3451 17.8287 11.5563 17.6895C11.6743 17.6119 11.792 17.534 11.9098 17.4561C11.97 17.4164 12.0302 17.3768 12.0904 17.3372C12.1792 17.2789 12.2678 17.2203 12.3564 17.1616C12.3833 17.144 12.4102 17.1264 12.438 17.1083C12.5653 17.0235 12.6402 16.9619 12.7265 16.8326C12.7312 16.7314 12.7312 16.7314 12.6815 16.6527C12.5135 16.6694 12.3994 16.7227 12.2602 16.8153C12.2228 16.84 12.1854 16.8646 12.1468 16.89C12.1068 16.9169 12.0668 16.9438 12.0256 16.9715C11.9836 16.9993 11.9416 17.0271 11.8983 17.0558C11.7638 17.145 11.6296 17.2347 11.4954 17.3244C11.4069 17.3833 11.3183 17.4421 11.2297 17.5009C10.9096 17.7134 10.5898 17.9262 10.2713 18.1411C10.2403 18.1619 10.2094 18.1827 10.1775 18.2042C10.1215 18.2419 10.0656 18.2797 10.0098 18.3177C9.623 18.5778 9.27793 18.6298 8.81412 18.5864C8.5125 18.5186 8.24779 18.3672 8.06087 18.1198C7.93978 17.9372 7.8811 17.7665 7.85008 17.5493C7.87194 17.4024 7.91339 17.3544 8.01888 17.2544C8.17492 17.1264 8.34917 17.0262 8.52181 16.9225C8.60713 16.8705 8.69244 16.8184 8.77776 16.7663C8.82124 16.74 8.86472 16.7136 8.90952 16.6864C9.22752 16.4931 9.54349 16.2965 9.8594 16.0999C9.99243 16.0175 10.126 15.9359 10.2595 15.8543C10.3501 15.7982 10.4408 15.742 10.5314 15.6858C10.5742 15.66 10.617 15.6341 10.661 15.6074C10.7203 15.5704 10.7203 15.5704 10.7807 15.5327C10.8156 15.5112 10.8506 15.4897 10.8866 15.4676C10.9917 15.3771 11.0229 15.3003 11.0626 15.1687C11.0626 15.139 11.0626 15.1093 11.0626 15.0787C10.7881 15.0805 10.5849 15.239 10.3628 15.3823C10.2779 15.4359 10.1931 15.4896 10.1082 15.5432C10.0434 15.5845 10.0434 15.5845 9.97734 15.6265C9.77804 15.753 9.57713 15.8767 9.37624 16.0006C9.13458 16.15 8.89312 16.2997 8.65216 16.4501C7.39997 17.2312 7.39997 17.2312 6.92538 17.1923C6.68514 17.1299 6.48774 17.0571 6.33797 16.8522C6.21519 16.6344 6.16978 16.451 6.20587 16.203C6.3488 15.7815 6.63558 15.479 7.01199 15.2495C7.09244 15.2033 7.1732 15.1576 7.25423 15.1125C7.34271 15.0617 7.43112 15.0108 7.51948 14.9598C7.58537 14.9219 7.58537 14.9219 7.65259 14.8833C7.83943 14.7741 8.02195 14.6586 8.20421 14.5419C8.53401 14.3318 8.86573 14.125 9.19917 13.9208C9.24444 13.8928 9.28971 13.8649 9.33635 13.8361C9.37833 13.8105 9.4203 13.7849 9.46355 13.7585C9.50097 13.7355 9.53839 13.7126 9.57695 13.6889C9.66854 13.6397 9.66854 13.6397 9.75848 13.6397C9.78847 13.4804 9.78847 13.4804 9.75848 13.3249C9.51957 13.3267 9.34537 13.4398 9.14858 13.561C9.11541 13.581 9.08224 13.6009 9.04807 13.6215C8.93976 13.687 8.83191 13.7532 8.72418 13.8196C8.68873 13.8414 8.65328 13.8632 8.61676 13.8857C8.5054 13.9544 8.39414 14.0233 8.28291 14.0922C8.22503 14.1281 8.22503 14.1281 8.16597 14.1646C7.98572 14.2764 7.80548 14.3881 7.62573 14.5006C7.48904 14.5861 7.352 14.6711 7.21476 14.7557C7.16162 14.7886 7.10859 14.8217 7.0557 14.855C6.45563 15.2325 5.76579 15.5872 5.03665 15.5284C4.77856 15.4659 4.59616 15.3533 4.40707 15.1687C4.2834 14.9658 4.29059 14.7701 4.31713 14.5391C4.51224 13.803 5.1234 13.4123 5.71874 13.0076C5.77928 12.9666 5.83984 12.9257 5.90043 12.8848C6.13696 12.7247 6.36958 12.5588 6.60269 12.3937C6.94233 12.1533 7.28283 11.9145 7.62617 11.6794C7.84146 11.5319 8.05572 11.383 8.2697 11.2335C8.76379 10.8886 9.26078 10.5483 9.76012 10.211C9.98788 10.0572 10.2154 9.90305 10.4401 9.74472C10.4733 9.72137 10.5066 9.69803 10.5408 9.67398C10.5995 9.63261 10.658 9.59094 10.7162 9.54889C10.8592 9.44827 10.9756 9.37618 11.1525 9.36757C11.2751 9.41049 11.3586 9.4728 11.4673 9.54745C11.4673 9.57713 11.4673 9.60681 11.4673 9.63739C11.497 9.63739 11.5267 9.63739 11.5573 9.63739C11.5483 9.73342 11.5338 9.82893 11.5179 9.92407C11.4117 10.6607 11.316 11.5671 11.7182 12.2272C11.9058 12.4879 12.1179 12.6643 12.4061 12.8021C12.6267 12.8463 12.8352 12.825 13.048 12.7523C13.1619 12.6744 13.1779 12.6003 13.2212 12.4705C13.2394 12.4298 13.2576 12.3891 13.2763 12.3472C13.4425 11.9748 13.5792 11.5959 13.7107 11.21C13.8151 10.9049 13.9275 10.6039 14.0447 10.3035C14.2601 9.7434 14.4809 9.15882 14.3054 8.5553C13.8947 7.62523 12.866 6.98725 12.0519 6.44453C12.0519 6.41485 12.0519 6.38517 12.0519 6.35459Z" fill="#8F6244"/>
<path d="M13.3136 10.6394L13.3137 10.6393C13.3515 10.5449 13.3905 10.4525 13.429 10.361C13.5152 10.1564 13.5997 9.95594 13.6672 9.74579C13.7601 9.45628 13.8075 9.18385 13.7713 8.92616C13.634 8.54339 13.5766 8.39821 13.3727 8.20328C13.1389 7.97972 12.7272 7.70771 11.8396 7.12441C11.4506 6.87903 11.1517 6.70739 10.8558 6.63588C10.5758 6.56821 10.2831 6.58742 9.90356 6.76973C9.75663 6.84045 9.60901 6.91007 9.46038 6.97825L9.4603 6.97829C9.32875 7.03858 9.19748 7.09939 9.06644 7.16075L8.96043 6.93434L9.06669 7.16063C8.999 7.19241 8.93127 7.22411 8.86349 7.2557L8.86103 7.25685L8.86102 7.25684C8.80249 7.28335 8.74753 7.30697 8.69522 7.32944C8.57833 7.37965 8.47468 7.42418 8.37404 7.48274C8.2411 7.56008 8.14866 7.64422 8.09335 7.75604C8.0765 7.79766 8.06358 7.82948 8.04774 7.86169C8.03201 7.89365 8.01394 7.92489 7.98939 7.96732L7.98594 7.97329C7.94556 8.0435 7.90589 8.11424 7.86685 8.18545C7.86678 8.18559 7.8667 8.18573 7.86663 8.18587L7.80272 8.30357L7.80257 8.30386C7.5866 8.70039 7.37758 9.10101 7.17017 9.50431L13.3136 10.6394ZM13.3136 10.6394C13.1674 11.0043 13.0298 11.3722 12.9065 11.7486C12.8538 11.9059 12.7991 12.0414 12.7263 12.1697C12.6745 12.1596 12.6237 12.138 12.5497 12.1002C12.2681 11.8673 12.117 11.6496 12.0487 11.3142C11.9957 10.9242 12.018 10.5323 12.0899 10.1344L12.0901 10.1334M13.3136 10.6394L12.0901 10.1334M12.0901 10.1334L12.1071 10.037C12.1366 9.88089 12.1801 9.73717 12.2383 9.58164L12.2534 9.54125M12.0901 10.1334L12.2534 9.54125M12.2534 9.54125L12.2541 9.49813M12.2534 9.54125L12.2541 9.49813M12.2541 9.49813L12.2569 9.32668L12.259 9.19864M12.2541 9.49813L12.259 9.19864M12.259 9.19864L12.1563 9.12213M12.259 9.19864L12.1563 9.12213M12.1563 9.12213C12.0055 9.00972 11.8577 8.94421 11.7091 8.8841C11.6041 8.83908 11.5373 8.79298 11.436 8.70874L11.4293 8.70315M12.1563 9.12213L11.4293 8.70315M11.4293 8.70315L11.4222 8.69805M11.4293 8.70315L11.4222 8.69805M11.4222 8.69805C11.4196 8.69617 11.4168 8.6942 11.414 8.69216C11.3846 8.67087 11.3437 8.64127 11.2967 8.62089C11.2492 8.6003 11.1996 8.59092 11.1645 8.58426C11.1611 8.58363 11.1579 8.58302 11.1548 8.58242L11.0497 8.56219M11.4222 8.69805L11.0497 8.56219M11.0497 8.56219L10.9626 8.62423M11.0497 8.56219L10.9626 8.62423M10.9626 8.62423C10.96 8.62605 10.9574 8.62788 10.9549 8.6297C10.9188 8.65534 10.8831 8.68069 10.8491 8.71313C10.8169 8.74381 10.7878 8.77933 10.7556 8.81877C10.755 8.81946 10.7544 8.82016 10.7538 8.82086C10.5937 8.99073 10.4235 9.11955 10.2143 9.25694L10.2143 9.25693M10.9626 8.62423L10.2143 9.25693M10.2143 9.25693L10.2122 9.25829M10.2143 9.25693L10.2122 9.25829M10.2122 9.25829L9.98511 9.41064L9.98435 9.41115L9.8688 9.48806L9.8685 9.48826M10.2122 9.25829L9.8685 9.48826M9.8685 9.48826C9.68944 9.60781 9.51206 9.72931 9.33605 9.84993L9.23101 9.92173L9.2309 9.92181M9.8685 9.48826L9.2309 9.92181M9.2309 9.92181C8.90087 10.1477 8.57296 10.3762 8.24604 10.6041C7.94319 10.815 7.63896 11.0242 7.33368 11.2323L7.33354 11.2324M9.2309 9.92181L7.33354 11.2324M7.33354 11.2324C7.09225 11.3971 6.8524 11.5634 6.6134 11.7302C6.44004 11.8512 6.26637 11.9718 6.09249 12.0924L6.09239 12.0925M7.33354 11.2324L6.09239 12.0925M6.09239 12.0925C6.01601 12.1455 5.93966 12.1987 5.86339 12.252L6.00661 12.4569L5.86357 12.2519C5.79001 12.3032 5.71611 12.3542 5.64187 12.4052M6.09239 12.0925L5.64187 12.4052M5.64187 12.4052C5.64475 12.3997 5.64764 12.3941 5.65055 12.3884L5.65079 12.388L5.70033 12.2913C5.70035 12.2913 5.70037 12.2913 5.70039 12.2912C5.75351 12.1878 5.80682 12.0844 5.86025 11.9808L5.86035 11.9806L5.91577 11.8729C6.14899 11.42 6.38547 10.9709 6.63107 10.5267L6.63126 10.5264C6.81792 10.1875 6.99512 9.84492 7.17014 9.50437L5.64187 12.4052Z" stroke="#8F6244" stroke-width="0.5"/>
<path d="M4.58813 5.71254L4.68575 5.76286C4.68578 5.76288 4.68582 5.7629 4.68585 5.76292C4.78959 5.81647 4.89325 5.87032 4.99722 5.92436L4.99763 5.92457L5.21317 6.03603C5.2132 6.03605 5.21323 6.03606 5.21326 6.03608C5.63777 6.2557 6.061 6.4755 6.48173 6.69932L6.48192 6.69942C6.62605 6.77594 6.77072 6.84996 6.91483 6.92281C6.915 6.92289 6.91517 6.92298 6.91533 6.92306L7.03452 6.98396L7.0346 6.98401C7.11083 7.02292 7.18733 7.06147 7.26413 7.09958L7.36498 7.15138L7.36498 7.15139L7.36687 7.15234L7.43827 7.18827C7.45336 7.1997 7.4623 7.20733 7.46757 7.21226C7.46319 7.22351 7.45941 7.23251 7.45522 7.24181C7.44317 7.26856 7.42727 7.29875 7.38439 7.37947L7.3836 7.38098L7.33946 7.46544C7.33944 7.46549 7.33941 7.46554 7.33939 7.46559C7.29206 7.55573 7.24363 7.64552 7.19441 7.73671L7.19345 7.73849L7.09318 7.92831C7.09313 7.92841 7.09308 7.92851 7.09303 7.9286C6.99498 8.11402 6.8955 8.29891 6.79535 8.48423L6.79523 8.48447L6.7137 8.63572C6.71369 8.63574 6.71368 8.63576 6.71367 8.63578C6.58152 8.8804 6.44793 9.12441 6.31352 9.36835L6.31338 9.36861C6.11196 9.73519 5.91571 10.1054 5.72893 10.4819C5.36235 11.2206 4.98088 11.9515 4.58259 12.6731L4.58227 12.6737C4.34087 13.1138 4.11282 13.5604 3.88669 14.0032L3.85612 14.063L3.85603 14.0632L3.80771 14.1576L3.80769 14.1577L3.71793 14.3337C3.71792 14.3337 3.71791 14.3337 3.71791 14.3337C3.67991 14.408 3.64094 14.4821 3.60124 14.5575L3.601 14.558L3.55744 14.6411C3.42507 14.6177 3.29779 14.5474 3.12183 14.4503C3.0966 14.4363 3.07036 14.4219 3.04297 14.4069L3.04094 14.4058L2.76482 14.2583L2.76436 14.2581L2.61505 14.1781L2.61416 14.1776C2.38385 14.0553 2.15183 13.9365 1.92171 13.8187C1.89349 13.8043 1.8653 13.7899 1.83714 13.7754C1.39777 13.5501 0.961275 13.3236 0.529997 13.0885L0.529164 13.0881L0.417543 13.0278C0.365407 12.9991 0.326848 12.9778 0.296814 12.9606C0.308013 12.9388 0.323046 12.91 0.345678 12.8668L0.346063 12.8661L0.386997 12.7872C0.387002 12.7872 0.387008 12.7872 0.387014 12.7872C0.431387 12.702 0.476347 12.617 0.52173 12.5312L0.522232 12.5302L0.61638 12.3502C0.616407 12.3501 0.616435 12.3501 0.616462 12.35C0.81243 11.9759 1.01373 11.6044 1.2184 11.2339L1.21872 11.2333C1.43438 10.8403 1.63812 10.4416 1.83997 10.0466C1.85825 10.0108 1.87651 9.97505 1.89476 9.93935C2.11682 9.50524 2.34231 9.07542 2.57752 8.65058L2.57781 8.65005C2.78639 8.27119 2.98311 7.88676 3.17792 7.50607C3.19115 7.48021 3.20437 7.45437 3.21759 7.42854C3.44381 6.98687 3.67358 6.54931 3.91327 6.11714L3.91334 6.11701L3.97254 6.01012L3.97298 6.00933L4.02948 5.909L4.0295 5.90902L4.03146 5.90541C4.0947 5.78864 4.09884 5.77976 4.15294 5.6473L4.20672 5.52301C4.29585 5.55788 4.38697 5.60618 4.49295 5.66237C4.52303 5.67832 4.55431 5.6949 4.58708 5.712L4.58813 5.71254ZM2.13123 11.9655L2.12202 11.9733L2.11361 11.9821C2.05371 12.0441 2.00549 12.1052 1.96595 12.1772C1.92746 12.2474 1.90243 12.3185 1.88004 12.3921L1.87069 12.4228L1.8694 12.4549C1.86498 12.5655 1.87453 12.6633 1.90822 12.7619C1.94013 12.8553 1.98939 12.9356 2.03909 13.0118L2.05048 13.0293L2.06461 13.0446C2.13876 13.1251 2.21417 13.1956 2.31353 13.2454C2.41071 13.2941 2.51165 13.3131 2.61505 13.3279L2.63854 13.3312L2.66223 13.3301C2.75262 13.3258 2.83813 13.3122 2.92374 13.2781C3.00833 13.2444 3.07864 13.1964 3.14505 13.1426L3.15543 13.1341L3.16486 13.1247C3.16911 13.1204 3.17339 13.1161 3.1777 13.1118C3.22893 13.0605 3.28346 13.006 3.3218 12.9402C3.36118 12.8727 3.3804 12.7988 3.39769 12.7324C3.39913 12.7269 3.40056 12.7214 3.40198 12.716L3.40876 12.6902L3.40994 12.6635C3.4181 12.479 3.42467 12.2601 3.26496 12.034L3.24528 12.0061L3.21885 11.9845C3.12945 11.9115 3.04233 11.8535 2.93794 11.8159C2.83529 11.779 2.73322 11.7683 2.62654 11.7633L2.61075 11.7626L2.59499 11.7639C2.50296 11.7712 2.41894 11.7899 2.33674 11.8279C2.25701 11.8648 2.19136 11.9142 2.13123 11.9655Z" stroke="#8F6244" stroke-width="0.5"/>
<path d="M20.7311 5.05042C20.8381 5.08519 20.8964 5.12272 20.9682 5.20946C21.1253 5.4754 21.2679 5.74789 21.4085 6.02289C21.5923 6.37968 21.779 6.73416 21.9734 7.0853C22.241 7.57009 22.492 8.06312 22.7438 8.55622C22.9736 9.00611 23.207 9.45311 23.4518 9.89509C23.6558 10.2654 23.849 10.6412 24.042 11.0174C24.0667 11.0655 24.0667 11.0655 24.0919 11.1146C24.1564 11.2403 24.2209 11.3661 24.2854 11.4918C24.4166 11.7475 24.5491 12.0025 24.6828 12.2568C24.7002 12.29 24.7176 12.3231 24.7355 12.3573C24.8027 12.4848 24.8703 12.6082 24.9502 12.7283C25.0032 12.8302 25.0032 12.8302 24.9975 12.9186C24.9415 13.0492 24.869 13.074 24.7427 13.1366C24.6973 13.1596 24.6518 13.1826 24.605 13.2062C24.5556 13.2306 24.5061 13.2549 24.4552 13.2799C24.351 13.3325 24.2469 13.3852 24.1428 13.438C24.0905 13.4644 24.0381 13.4908 23.9842 13.518C23.7735 13.6256 23.5661 13.7389 23.359 13.8533C23.2794 13.8969 23.1997 13.9404 23.12 13.984C22.9391 14.0827 22.9391 14.0827 22.7583 14.1817C22.5651 14.2876 22.3716 14.3929 22.1777 14.4975C22.1132 14.5324 22.0487 14.5676 21.9844 14.603C21.8939 14.6527 21.803 14.7017 21.712 14.7505C21.6851 14.7656 21.6581 14.7806 21.6304 14.796C21.4599 14.8864 21.3282 14.9319 21.1358 14.8988C21.0642 14.8196 21.0642 14.8196 21.0104 14.7073C20.9794 14.645 20.9794 14.645 20.9477 14.5814C20.9263 14.5359 20.9049 14.4904 20.8829 14.4435C20.8357 14.3479 20.7884 14.2524 20.7409 14.157C20.717 14.1081 20.6931 14.0593 20.6684 14.0089C20.5587 13.7896 20.4399 13.5757 20.3208 13.3614C20.1507 13.0527 19.9875 12.7417 19.8317 12.4255C19.6815 12.1205 19.5241 11.8208 19.3595 11.5233C19.1182 11.0865 18.8896 10.6437 18.6625 10.1995C18.4398 9.76381 18.2161 9.32928 17.9795 8.90096C17.7791 8.53808 17.5848 8.17236 17.3937 7.80452C17.3628 7.74511 17.3319 7.68574 17.3009 7.6264C17.2578 7.5438 17.2149 7.46108 17.1722 7.37831C17.1473 7.33044 17.1225 7.28257 17.0969 7.23325C17.0436 7.11903 17.0436 7.11903 17.0436 7.02909C17.1228 6.9779 17.1228 6.9779 17.2351 6.92123C17.2766 6.89998 17.3181 6.87872 17.3609 6.85683C17.4064 6.83391 17.452 6.81099 17.4989 6.78738C17.5953 6.73803 17.6916 6.68861 17.7879 6.63912C17.8368 6.61399 17.8858 6.58886 17.9362 6.56297C18.1398 6.45731 18.3408 6.34723 18.5416 6.23649C19.0547 5.95426 19.5727 5.68133 20.091 5.40866C20.1396 5.38302 20.1396 5.38302 20.1892 5.35686C20.2505 5.32457 20.3117 5.29234 20.3731 5.26018C20.4968 5.19489 20.6145 5.12813 20.7311 5.05042ZM21.6755 12.1556C21.5777 12.2569 21.5424 12.3296 21.5012 12.4648C21.4941 12.6431 21.5335 12.7264 21.6305 12.8752C21.7597 13.0116 21.8251 13.0513 22.0127 13.0747C22.2187 13.049 22.3245 12.9833 22.4765 12.8471C22.5612 12.6776 22.5629 12.5207 22.5299 12.3355C22.4719 12.2004 22.4258 12.1643 22.3051 12.0657C22.0671 11.9896 21.8719 11.9881 21.6755 12.1556Z" fill="#8F6244"/>
</svg>
