<svg width="20" height="20" viewBox="0 0 20 20" fill="none" xmlns="http://www.w3.org/2000/svg">
<path d="M15.7149 7.39326C15.7149 7.03427 15.4239 6.74326 15.0649 6.74326C14.706 6.74326 14.4149 7.03427 14.4149 7.39326V9.92222C14.4149 10.2812 14.706 10.5722 15.0649 10.5722C15.4239 10.5722 15.7149 10.2812 15.7149 9.92222V7.39326Z" fill="#333333"/>
<path d="M13.1675 8.74191C13.1675 8.38292 12.8765 8.09191 12.5175 8.09191C12.1585 8.09191 11.8675 8.38292 11.8675 8.74191V9.92222C11.8675 10.2812 12.1585 10.5722 12.5175 10.5722C12.8765 10.5722 13.1675 10.2812 13.1675 9.92222V8.74191Z" fill="#333333"/>
<path fill-rule="evenodd" clip-rule="evenodd" d="M11.0789 0C10.235 0 9.63013 0.311904 9.26288 0.797252C9.10712 1.0031 9.00616 1.22435 8.94515 1.43856H4.12588C3.76689 1.43856 3.47588 1.72958 3.47588 2.08856V7.07293H1.12887C0.769889 7.07293 0.478874 7.36394 0.478874 7.72293V18.632C0.478874 18.991 0.769889 19.282 1.12887 19.282H9.28072C9.63971 19.282 9.93072 18.991 9.93072 18.632V17.8435H18.8711C19.2301 17.8435 19.5211 17.5524 19.5211 17.1935V2.08856C19.5211 1.72958 19.2301 1.43856 18.8711 1.43856H13.8135C13.5875 0.501982 12.8849 0.0708412 12.3583 0.00501937L12.3467 0.0985585V0H11.0789ZM10.1682 2.03458C10.1585 1.91822 10.1893 1.72739 10.2996 1.58167C10.3859 1.46762 10.5801 1.3 11.0789 1.3H12.2151C12.2267 1.30376 12.2435 1.3101 12.2635 1.32048C12.3029 1.34085 12.3489 1.37326 12.3932 1.42265C12.4732 1.51179 12.5868 1.70084 12.5868 2.08856C12.5868 2.44755 12.8778 2.73856 13.2368 2.73856H14.1452V4.07592H8.73192V2.73856H9.88012V2.05859L10.1682 2.03458ZM9.28072 7.07293H4.77588V2.73856H7.43192V4.72592C7.43192 5.08491 7.72294 5.37592 8.08192 5.37592H14.7952C15.1542 5.37592 15.4452 5.08491 15.4452 4.72592V2.73856H18.2211V16.5435H9.93072V7.72293C9.93072 7.36394 9.63971 7.07293 9.28072 7.07293ZM1.77887 10.7892V8.37293H8.63072V10.7892H1.77887ZM1.77887 12.0892H8.63072V17.982H1.77887V12.0892Z" fill="#333333"/>
</svg>
