<svg width="20" height="20" viewBox="0 0 20 20" fill="none" xmlns="http://www.w3.org/2000/svg">
<path d="M18.706 16.3216C18.2321 15.1989 17.5442 14.1792 16.6809 13.3191C15.8202 12.4566 14.8006 11.7689 13.6784 11.294C13.6683 11.2889 13.6583 11.2864 13.6482 11.2814C15.2136 10.1508 16.2312 8.30905 16.2312 6.23116C16.2312 2.78894 13.4422 0 10 0C6.55779 0 3.76885 2.78894 3.76885 6.23116C3.76885 8.30905 4.78643 10.1508 6.35176 11.2839C6.34171 11.2889 6.33166 11.2915 6.32161 11.2965C5.19598 11.7714 4.18593 12.4523 3.3191 13.3216C2.45656 14.1823 1.76886 15.2019 1.29397 16.3241C0.827445 17.4227 0.575837 18.6006 0.552767 19.794C0.552096 19.8208 0.5568 19.8475 0.5666 19.8724C0.576401 19.8974 0.591101 19.9202 0.609833 19.9394C0.628565 19.9586 0.650951 19.9738 0.675672 19.9842C0.700392 19.9946 0.726947 20 0.753772 20H2.26131C2.37186 20 2.4598 19.9121 2.46231 19.804C2.51257 17.8643 3.29146 16.0477 4.66834 14.6709C6.09297 13.2462 7.98493 12.4623 10 12.4623C12.0151 12.4623 13.907 13.2462 15.3317 14.6709C16.7085 16.0477 17.4874 17.8643 17.5377 19.804C17.5402 19.9146 17.6281 20 17.7387 20H19.2462C19.2731 20 19.2996 19.9946 19.3243 19.9842C19.3491 19.9738 19.3714 19.9586 19.3902 19.9394C19.4089 19.9202 19.4236 19.8974 19.4334 19.8724C19.4432 19.8475 19.4479 19.8208 19.4472 19.794C19.4221 18.593 19.1734 17.4246 18.706 16.3216ZM10 10.5528C8.84674 10.5528 7.76131 10.103 6.94473 9.28643C6.12814 8.46985 5.67839 7.38442 5.67839 6.23116C5.67839 5.07789 6.12814 3.99246 6.94473 3.17588C7.76131 2.3593 8.84674 1.90955 10 1.90955C11.1533 1.90955 12.2387 2.3593 13.0553 3.17588C13.8719 3.99246 14.3216 5.07789 14.3216 6.23116C14.3216 7.38442 13.8719 8.46985 13.0553 9.28643C12.2387 10.103 11.1533 10.5528 10 10.5528Z" fill="#333333"/>
</svg>
